{
    "asset" : {
        "generator" : "Khronos glTF Blender I/O v1.5.17",
        "version" : "2.0"
    },
    "scene" : 0,
    "scenes" : [
        {
            "name" : "Scene",
            "nodes" : [
                0
            ]
        }
    ],
    "nodes" : [
        {
            "mesh" : 0,
            "name" : "Cylinder_Material.002_0"
        }
    ],
    "materials" : [
        {
            "doubleSided" : true,
            "name" : "Material.002",
            "pbrMetallicRoughness" : {
                "metallicFactor" : 0,
                "roughnessFactor" : 0.8959580063819885
            }
        },
        {
            "doubleSided" : true,
            "name" : "Material.001",
            "pbrMetallicRoughness" : {
                "baseColorFactor" : [
                    0.800000011920929,
                    0.04775780066847801,
                    0.09382910281419754,
                    1
                ],
                "metallicFactor" : 0,
                "roughnessFactor" : 0.9528165459632874
            }
        }
    ],
    "meshes" : [
        {
            "name" : "Cylinder_Material.002_0",
            "primitives" : [
                {
                    "attributes" : {
                        "POSITION" : 0,
                        "NORMAL" : 1,
                        "TEXCOORD_0" : 2
                    },
                    "indices" : 3,
                    "material" : 0
                },
                {
                    "attributes" : {
                        "POSITION" : 4,
                        "NORMAL" : 5,
                        "TEXCOORD_0" : 6
                    },
                    "indices" : 7,
                    "material" : 1
                }
            ]
        }
    ],
    "accessors" : [
        {
            "bufferView" : 0,
            "componentType" : 5126,
            "count" : 214,
            "max" : [
                1,
                1,
                4.87478494644165
            ],
            "min" : [
                -1.000653862953186,
                -1.0027014017105103,
                -1
            ],
            "type" : "VEC3"
        },
        {
            "bufferView" : 1,
            "componentType" : 5126,
            "count" : 214,
            "type" : "VEC3"
        },
        {
            "bufferView" : 2,
            "componentType" : 5126,
            "count" : 214,
            "type" : "VEC2"
        },
        {
            "bufferView" : 3,
            "componentType" : 5123,
            "count" : 222,
            "type" : "SCALAR"
        },
        {
            "bufferView" : 4,
            "componentType" : 5126,
            "count" : 122,
            "max" : [
                1.3571065664291382,
                0.872946560382843,
                5.6180291175842285
            ],
            "min" : [
                -1.4122482538223267,
                -1.4060908555984497,
                -1.7074071168899536
            ],
            "type" : "VEC3"
        },
        {
            "bufferView" : 5,
            "componentType" : 5126,
            "count" : 122,
            "type" : "VEC3"
        },
        {
            "bufferView" : 6,
            "componentType" : 5126,
            "count" : 122,
            "type" : "VEC2"
        },
        {
            "bufferView" : 7,
            "componentType" : 5123,
            "count" : 150,
            "type" : "SCALAR"
        }
    ],
    "bufferViews" : [
        {
            "buffer" : 0,
            "byteLength" : 2568,
            "byteOffset" : 0
        },
        {
            "buffer" : 0,
            "byteLength" : 2568,
            "byteOffset" : 2568
        },
        {
            "buffer" : 0,
            "byteLength" : 1712,
            "byteOffset" : 5136
        },
        {
            "buffer" : 0,
            "byteLength" : 444,
            "byteOffset" : 6848
        },
        {
            "buffer" : 0,
            "byteLength" : 1464,
            "byteOffset" : 7292
        },
        {
            "buffer" : 0,
            "byteLength" : 1464,
            "byteOffset" : 8756
        },
        {
            "buffer" : 0,
            "byteLength" : 976,
            "byteOffset" : 10220
        },
        {
            "buffer" : 0,
            "byteLength" : 300,
            "byteOffset" : 11196
        }
    ],
    "buffers" : [
        {
            "byteLength" : 11496,
            "uri" : "data:application/octet-stream;base64,"
        }
    ]
}
