{
    "asset" : {
        "generator" : "Khronos glTF Blender I/O v1.5.17",
        "version" : "2.0"
    },
    "scene" : 0,
    "scenes" : [
        {
            "name" : "Scene",
            "nodes" : [
                0,
                1,
                2,
                3,
                4,
                5
            ]
        }
    ],
    "nodes" : [
        {
            "mesh" : 0,
            "name" : "g R_D_L_LP",
            "rotation" : [
                0.018573299050331116,
                -0.70686274766922,
                0.7068628668785095,
                0.018573295325040817
            ],
            "scale" : [
                -0.11647424846887589,
                0.11647424846887589,
                0.11647424846887589
            ]
        },
        {
            "mesh" : 1,
            "name" : "g R_D_LP",
            "rotation" : [
                0.018573299050331116,
                -0.70686274766922,
                0.7068628668785095,
                0.018573295325040817
            ],
            "scale" : [
                -0.11647424846887589,
                0.11647424846887589,
                0.11647424846887589
            ]
        },
        {
            "mesh" : 2,
            "name" : "g Savovi",
            "rotation" : [
                0.018573299050331116,
                -0.70686274766922,
                0.7068628668785095,
                0.018573295325040817
            ],
            "scale" : [
                -0.11647424846887589,
                0.11647424846887589,
                0.11647424846887589
            ]
        },
        {
            "mesh" : 3,
            "name" : "g R_G_LP",
            "rotation" : [
                0.018573299050331116,
                -0.70686274766922,
                0.7068628668785095,
                0.018573295325040817
            ],
            "scale" : [
                -0.11647424846887589,
                0.11647424846887589,
                0.11647424846887589
            ]
        },
        {
            "mesh" : 4,
            "name" : "g R_L_LP",
            "rotation" : [
                0.018573299050331116,
                -0.70686274766922,
                0.7068628668785095,
                0.018573295325040817
            ],
            "scale" : [
                -0.11647424846887589,
                0.11647424846887589,
                0.11647424846887589
            ]
        },
        {
            "mesh" : 5,
            "name" : "g R_P_LP",
            "rotation" : [
                0.018573299050331116,
                -0.70686274766922,
                0.7068628668785095,
                0.018573295325040817
            ],
            "scale" : [
                -0.11647424846887589,
                0.11647424846887589,
                0.11647424846887589
            ]
        }
    ],
    "materials" : [
        {
            "doubleSided" : true,
            "name" : "Material.002",
            "pbrMetallicRoughness" : {
                "metallicFactor" : 0
            }
        },
        {
            "doubleSided" : true,
            "name" : "Material.001",
            "pbrMetallicRoughness" : {
                "metallicFactor" : 0
            }
        },
        {
            "doubleSided" : true,
            "name" : "Savovi",
            "pbrMetallicRoughness" : {
                "baseColorFactor" : [
                    0.5882350206375122,
                    0.5882350206375122,
                    0.5882350206375122,
                    0
                ],
                "metallicFactor" : 0,
                "roughnessFactor" : 0.5
            }
        },
        {
            "doubleSided" : true,
            "name" : "Material.003",
            "pbrMetallicRoughness" : {}
        },
        {
            "doubleSided" : true,
            "name" : "Material.004",
            "pbrMetallicRoughness" : {
                "baseColorFactor" : [
                    0.800000011920929,
                    0.800000011920929,
                    0.800000011920929,
                    1
                ],
                "metallicFactor" : 0
            }
        },
        {
            "doubleSided" : true,
            "name" : "Material.005",
            "pbrMetallicRoughness" : {
                "baseColorFactor" : [
                    0.800000011920929,
                    0.800000011920929,
                    0.800000011920929,
                    1
                ],
                "metallicFactor" : 0
            }
        }
    ],
    "meshes" : [
        {
            "name" : "meshId0_name",
            "primitives" : [
                {
                    "attributes" : {
                        "POSITION" : 0,
                        "NORMAL" : 1,
                        "TEXCOORD_0" : 2
                    },
                    "indices" : 3,
                    "material" : 0
                }
            ]
        },
        {
            "name" : "meshId1_name",
            "primitives" : [
                {
                    "attributes" : {
                        "POSITION" : 4,
                        "NORMAL" : 5,
                        "TEXCOORD_0" : 6
                    },
                    "indices" : 7,
                    "material" : 1
                }
            ]
        },
        {
            "name" : "meshId2_name",
            "primitives" : [
                {
                    "attributes" : {
                        "POSITION" : 8,
                        "NORMAL" : 9,
                        "TEXCOORD_0" : 10
                    },
                    "indices" : 11,
                    "material" : 2
                }
            ]
        },
        {
            "name" : "meshId3_name",
            "primitives" : [
                {
                    "attributes" : {
                        "POSITION" : 12,
                        "NORMAL" : 13,
                        "TEXCOORD_0" : 14
                    },
                    "indices" : 15,
                    "material" : 3
                }
            ]
        },
        {
            "name" : "meshId4_name",
            "primitives" : [
                {
                    "attributes" : {
                        "POSITION" : 16,
                        "NORMAL" : 17,
                        "TEXCOORD_0" : 18
                    },
                    "indices" : 19,
                    "material" : 4
                }
            ]
        },
        {
            "name" : "meshId5_name",
            "primitives" : [
                {
                    "attributes" : {
                        "POSITION" : 20,
                        "NORMAL" : 21,
                        "TEXCOORD_0" : 22
                    },
                    "indices" : 23,
                    "material" : 5
                }
            ]
        }
    ],
    "accessors" : [
        {
            "bufferView" : 0,
            "componentType" : 5126,
            "count" : 5514,
            "max" : [
                -0.22880999743938446,
                0.3555060029029846,
                0.9806469678878784
            ],
            "min" : [
                -0.5891649723052979,
                -0.37416499853134155,
                0.02266080118715763
            ],
            "type" : "VEC3"
        },
        {
            "bufferView" : 1,
            "componentType" : 5126,
            "count" : 5514,
            "type" : "VEC3"
        },
        {
            "bufferView" : 2,
            "componentType" : 5126,
            "count" : 5514,
            "type" : "VEC2"
        },
        {
            "bufferView" : 3,
            "componentType" : 5123,
            "count" : 31812,
            "type" : "SCALAR"
        },
        {
            "bufferView" : 4,
            "componentType" : 5126,
            "count" : 4020,
            "max" : [
                0.5904979705810547,
                0.48733198642730713,
                1
            ],
            "min" : [
                -0.5838609933853149,
                -0.48660099506378174,
                -0.016054600477218628
            ],
            "type" : "VEC3"
        },
        {
            "bufferView" : 5,
            "componentType" : 5126,
            "count" : 4020,
            "type" : "VEC3"
        },
        {
            "bufferView" : 6,
            "componentType" : 5126,
            "count" : 4020,
            "type" : "VEC2"
        },
        {
            "bufferView" : 7,
            "componentType" : 5123,
            "count" : 23388,
            "type" : "SCALAR"
        },
        {
            "bufferView" : 8,
            "componentType" : 5126,
            "count" : 48093,
            "max" : [
                0.5902900099754333,
                0.4878630042076111,
                0.9865260124206543
            ],
            "min" : [
                -0.5904979705810547,
                -0.4878630042076111,
                -0.5304229855537415
            ],
            "type" : "VEC3"
        },
        {
            "bufferView" : 9,
            "componentType" : 5126,
            "count" : 48093,
            "type" : "VEC3"
        },
        {
            "bufferView" : 10,
            "componentType" : 5126,
            "count" : 48093,
            "type" : "VEC2"
        },
        {
            "bufferView" : 11,
            "componentType" : 5123,
            "count" : 192360,
            "type" : "SCALAR"
        },
        {
            "bufferView" : 12,
            "componentType" : 5126,
            "count" : 5017,
            "max" : [
                0.49049198627471924,
                0.34160199761390686,
                0.09485109895467758
            ],
            "min" : [
                -0.3924190104007721,
                -0.276185005903244,
                -0.9472029805183411
            ],
            "type" : "VEC3"
        },
        {
            "bufferView" : 13,
            "componentType" : 5126,
            "count" : 5017,
            "type" : "VEC3"
        },
        {
            "bufferView" : 14,
            "componentType" : 5126,
            "count" : 5017,
            "type" : "VEC2"
        },
        {
            "bufferView" : 15,
            "componentType" : 5123,
            "count" : 27054,
            "type" : "SCALAR"
        },
        {
            "bufferView" : 16,
            "componentType" : 5126,
            "count" : 1433,
            "max" : [
                0.49863401055336,
                -0.04625510051846504,
                0.0027588000521063805
            ],
            "min" : [
                -0.33531999588012695,
                -0.29072800278663635,
                -0.5597140192985535
            ],
            "type" : "VEC3"
        },
        {
            "bufferView" : 17,
            "componentType" : 5126,
            "count" : 1433,
            "type" : "VEC3"
        },
        {
            "bufferView" : 18,
            "componentType" : 5126,
            "count" : 1433,
            "type" : "VEC2"
        },
        {
            "bufferView" : 19,
            "componentType" : 5123,
            "count" : 7890,
            "type" : "SCALAR"
        },
        {
            "bufferView" : 20,
            "componentType" : 5126,
            "count" : 5493,
            "max" : [
                0.44828298687934875,
                0.37294501066207886,
                -0.5236740112304688
            ],
            "min" : [
                -0.311367005109787,
                0.11767800152301788,
                -1
            ],
            "type" : "VEC3"
        },
        {
            "bufferView" : 21,
            "componentType" : 5126,
            "count" : 5493,
            "type" : "VEC3"
        },
        {
            "bufferView" : 22,
            "componentType" : 5126,
            "count" : 5493,
            "type" : "VEC2"
        },
        {
            "bufferView" : 23,
            "componentType" : 5123,
            "count" : 31482,
            "type" : "SCALAR"
        }
    ],
    "bufferViews" : [
        {
            "buffer" : 0,
            "byteLength" : 66168,
            "byteOffset" : 0
        },
        {
            "buffer" : 0,
            "byteLength" : 66168,
            "byteOffset" : 66168
        },
        {
            "buffer" : 0,
            "byteLength" : 44112,
            "byteOffset" : 132336
        },
        {
            "buffer" : 0,
            "byteLength" : 63624,
            "byteOffset" : 176448
        },
        {
            "buffer" : 0,
            "byteLength" : 48240,
            "byteOffset" : 240072
        },
        {
            "buffer" : 0,
            "byteLength" : 48240,
            "byteOffset" : 288312
        },
        {
            "buffer" : 0,
            "byteLength" : 32160,
            "byteOffset" : 336552
        },
        {
            "buffer" : 0,
            "byteLength" : 46776,
            "byteOffset" : 368712
        },
        {
            "buffer" : 0,
            "byteLength" : 577116,
            "byteOffset" : 415488
        },
        {
            "buffer" : 0,
            "byteLength" : 577116,
            "byteOffset" : 992604
        },
        {
            "buffer" : 0,
            "byteLength" : 384744,
            "byteOffset" : 1569720
        },
        {
            "buffer" : 0,
            "byteLength" : 384720,
            "byteOffset" : 1954464
        },
        {
            "buffer" : 0,
            "byteLength" : 60204,
            "byteOffset" : 2339184
        },
        {
            "buffer" : 0,
            "byteLength" : 60204,
            "byteOffset" : 2399388
        },
        {
            "buffer" : 0,
            "byteLength" : 40136,
            "byteOffset" : 2459592
        },
        {
            "buffer" : 0,
            "byteLength" : 54108,
            "byteOffset" : 2499728
        },
        {
            "buffer" : 0,
            "byteLength" : 17196,
            "byteOffset" : 2553836
        },
        {
            "buffer" : 0,
            "byteLength" : 17196,
            "byteOffset" : 2571032
        },
        {
            "buffer" : 0,
            "byteLength" : 11464,
            "byteOffset" : 2588228
        },
        {
            "buffer" : 0,
            "byteLength" : 15780,
            "byteOffset" : 2599692
        },
        {
            "buffer" : 0,
            "byteLength" : 65916,
            "byteOffset" : 2615472
        },
        {
            "buffer" : 0,
            "byteLength" : 65916,
            "byteOffset" : 2681388
        },
        {
            "buffer" : 0,
            "byteLength" : 43944,
            "byteOffset" : 2747304
        },
        {
            "buffer" : 0,
            "byteLength" : 62964,
            "byteOffset" : 2791248
        }
    ],
    "buffers" : [
        {
            "byteLength" : 2854212,
            "uri" : "data:application/octet-stream;base64,"
        }
    ]
}
