{
    "asset" : {
        "generator" : "Khronos glTF Blender I/O v1.5.17",
        "version" : "2.0"
    },
    "scene" : 0,
    "scenes" : [
        {
            "name" : "Scene",
            "nodes" : [
                22
            ]
        }
    ],
    "nodes" : [
        {
            "mesh" : 0,
            "name" : "Earth_Planet1_Planet_Earth_body1_Earth_body_EarthGreen_0"
        },
        {
            "mesh" : 1,
            "name" : "Earth_Planet1_Planet_Earth_body1_Earth_body_Water_0"
        },
        {
            "children" : [
                0,
                1
            ],
            "name" : "Earth_Planet1_Planet_Earth_body1_Earth_body",
            "scale" : [
                4577.001953125,
                4577.00146484375,
                4577.00146484375
            ]
        },
        {
            "mesh" : 2,
            "name" : "Earth_Planet1_Planet_Mounts_Green_Mount10_Mount11_EarthGreen_0"
        },
        {
            "children" : [
                3
            ],
            "name" : "Earth_Planet1_Planet_Mounts_Green_Mount10_Mount11",
            "scale" : [
                4577.001953125,
                4577.00146484375,
                4577.00146484375
            ]
        },
        {
            "mesh" : 3,
            "name" : "Earth_Planet1_Planet_Mounts_Green_Mount13_Mount12_EarthGreen_0"
        },
        {
            "children" : [
                5
            ],
            "name" : "Earth_Planet1_Planet_Mounts_Green_Mount13_Mount12",
            "scale" : [
                4577.001953125,
                4577.00146484375,
                4577.00146484375
            ]
        },
        {
            "mesh" : 4,
            "name" : "Earth_Planet1_Planet_Mounts_Green_Mount2_Mount3_EarthGreen_0"
        },
        {
            "children" : [
                7
            ],
            "name" : "Earth_Planet1_Planet_Mounts_Green_Mount2_Mount3",
            "scale" : [
                4577.001953125,
                4577.00146484375,
                4577.00146484375
            ]
        },
        {
            "mesh" : 5,
            "name" : "Earth_Planet1_Planet_Mounts_Green_Mount4_Mount5_EarthGreen_0"
        },
        {
            "children" : [
                9
            ],
            "name" : "Earth_Planet1_Planet_Mounts_Green_Mount4_Mount5",
            "scale" : [
                4577.001953125,
                4577.00146484375,
                4577.00146484375
            ]
        },
        {
            "mesh" : 6,
            "name" : "Earth_Planet1_Planet_Mounts_Green_Mount6_Mount7_EarthGreen_0"
        },
        {
            "children" : [
                11
            ],
            "name" : "Earth_Planet1_Planet_Mounts_Green_Mount6_Mount7",
            "scale" : [
                4577.001953125,
                4577.00146484375,
                4577.00146484375
            ]
        },
        {
            "mesh" : 7,
            "name" : "Earth_Planet1_Planet_Mounts_Green_Mount8_Mount9_EarthGreen_0"
        },
        {
            "children" : [
                13
            ],
            "name" : "Earth_Planet1_Planet_Mounts_Green_Mount8_Mount9",
            "scale" : [
                4577.001953125,
                4577.00146484375,
                4577.00146484375
            ]
        },
        {
            "mesh" : 8,
            "name" : "Earth_Planet1_Planet_Mounts_Green_Mount_Mount1_EarthGreen_0"
        },
        {
            "children" : [
                15
            ],
            "name" : "Earth_Planet1_Planet_Mounts_Green_Mount_Mount1",
            "scale" : [
                4577.001953125,
                4577.00146484375,
                4577.00146484375
            ]
        },
        {
            "children" : [
                2,
                4,
                6,
                8,
                10,
                12,
                14,
                16
            ],
            "name" : "Earth"
        },
        {
            "children" : [
                17
            ],
            "name" : "RootNode"
        },
        {
            "children" : [
                18
            ],
            "name" : "Node_3"
        },
        {
            "children" : [
                19
            ],
            "name" : "f5ab74d6bf0e43a2b1a25124d3e94a1b.fbx",
            "rotation" : [
                0.7071068286895752,
                0,
                0,
                0.7071068286895752
            ]
        },
        {
            "children" : [
                20
            ],
            "name" : "RootNode (model correction matrix)",
            "scale" : [
                0.00021848359028808773,
                0.00021848359028808773,
                0.00021848359028808773
            ]
        },
        {
            "children" : [
                21
            ],
            "name" : "RootNode (gltf orientation matrix)",
            "rotation" : [
                -0.7071068286895752,
                0,
                0,
                0.7071068286895752
            ]
        }
    ],
    "animations" : [
        {
            "channels" : [
                {
                    "sampler" : 0,
                    "target" : {
                        "node" : 17,
                        "path" : "rotation"
                    }
                }
            ],
            "name" : "Take 001",
            "samplers" : [
                {
                    "input" : 34,
                    "interpolation" : "LINEAR",
                    "output" : 35
                }
            ]
        }
    ],
    "materials" : [
        {
            "doubleSided" : true,
            "name" : "EarthGreen",
            "pbrMetallicRoughness" : {
                "baseColorFactor" : [
                    0.43666398525238037,
                    0.6990290284156799,
                    0.39629998803138733,
                    1
                ],
                "metallicFactor" : 0
            }
        },
        {
            "doubleSided" : true,
            "name" : "Water",
            "pbrMetallicRoughness" : {
                "baseColorFactor" : [
                    0.21259799599647522,
                    0.4881890118122101,
                    1,
                    1
                ],
                "metallicFactor" : 0,
                "roughnessFactor" : 0.8868629336357117
            }
        }
    ],
    "meshes" : [
        {
            "name" : "Earth_Planet1_Planet_Earth_body1_Earth_body_EarthGreen_0",
            "primitives" : [
                {
                    "attributes" : {
                        "POSITION" : 0,
                        "NORMAL" : 1,
                        "TEXCOORD_0" : 2
                    },
                    "indices" : 3,
                    "material" : 0
                }
            ]
        },
        {
            "name" : "Earth_Planet1_Planet_Earth_body1_Earth_body_Water_0",
            "primitives" : [
                {
                    "attributes" : {
                        "POSITION" : 4,
                        "NORMAL" : 5,
                        "TEXCOORD_0" : 6
                    },
                    "indices" : 7,
                    "material" : 1
                }
            ]
        },
        {
            "name" : "Earth_Planet1_Planet_Mounts_Green_Mount10_Mount11_EarthGreen_0",
            "primitives" : [
                {
                    "attributes" : {
                        "POSITION" : 8,
                        "NORMAL" : 9,
                        "TEXCOORD_0" : 10
                    },
                    "indices" : 11,
                    "material" : 0
                }
            ]
        },
        {
            "name" : "Earth_Planet1_Planet_Mounts_Green_Mount13_Mount12_EarthGreen_0",
            "primitives" : [
                {
                    "attributes" : {
                        "POSITION" : 12,
                        "NORMAL" : 13,
                        "TEXCOORD_0" : 14
                    },
                    "indices" : 15,
                    "material" : 0
                }
            ]
        },
        {
            "name" : "Earth_Planet1_Planet_Mounts_Green_Mount2_Mount3_EarthGreen_0",
            "primitives" : [
                {
                    "attributes" : {
                        "POSITION" : 16,
                        "NORMAL" : 17,
                        "TEXCOORD_0" : 18
                    },
                    "indices" : 15,
                    "material" : 0
                }
            ]
        },
        {
            "name" : "Earth_Planet1_Planet_Mounts_Green_Mount4_Mount5_EarthGreen_0",
            "primitives" : [
                {
                    "attributes" : {
                        "POSITION" : 19,
                        "NORMAL" : 20,
                        "TEXCOORD_0" : 21
                    },
                    "indices" : 22,
                    "material" : 0
                }
            ]
        },
        {
            "name" : "Earth_Planet1_Planet_Mounts_Green_Mount6_Mount7_EarthGreen_0",
            "primitives" : [
                {
                    "attributes" : {
                        "POSITION" : 23,
                        "NORMAL" : 24,
                        "TEXCOORD_0" : 25
                    },
                    "indices" : 26,
                    "material" : 0
                }
            ]
        },
        {
            "name" : "Earth_Planet1_Planet_Mounts_Green_Mount8_Mount9_EarthGreen_0",
            "primitives" : [
                {
                    "attributes" : {
                        "POSITION" : 27,
                        "NORMAL" : 28,
                        "TEXCOORD_0" : 29
                    },
                    "indices" : 30,
                    "material" : 0
                }
            ]
        },
        {
            "name" : "Earth_Planet1_Planet_Mounts_Green_Mount_Mount1_EarthGreen_0",
            "primitives" : [
                {
                    "attributes" : {
                        "POSITION" : 31,
                        "NORMAL" : 32,
                        "TEXCOORD_0" : 33
                    },
                    "indices" : 11,
                    "material" : 0
                }
            ]
        }
    ],
    "accessors" : [
        {
            "bufferView" : 0,
            "componentType" : 5126,
            "count" : 14256,
            "max" : [
                -0.011498757638037205,
                0.008707012049853802,
                0.5471833348274231
            ],
            "min" : [
                -0.029354503378272057,
                -0.009012583643198013,
                0.5310652852058411
            ],
            "type" : "VEC3"
        },
        {
            "bufferView" : 1,
            "componentType" : 5126,
            "count" : 14256,
            "type" : "VEC3"
        },
        {
            "bufferView" : 2,
            "componentType" : 5126,
            "count" : 14256,
            "type" : "VEC2"
        },
        {
            "bufferView" : 3,
            "componentType" : 5123,
            "count" : 21294,
            "type" : "SCALAR"
        },
        {
            "bufferView" : 4,
            "componentType" : 5126,
            "count" : 8632,
            "max" : [
                -0.011498761363327503,
                0.008372695185244083,
                0.5472335815429688
            ],
            "min" : [
                -0.028767365962266922,
                -0.008446765132248402,
                0.5299937725067139
            ],
            "type" : "VEC3"
        },
        {
            "bufferView" : 5,
            "componentType" : 5126,
            "count" : 8632,
            "type" : "VEC3"
        },
        {
            "bufferView" : 6,
            "componentType" : 5126,
            "count" : 8632,
            "type" : "VEC2"
        },
        {
            "bufferView" : 7,
            "componentType" : 5123,
            "count" : 12834,
            "type" : "SCALAR"
        },
        {
            "bufferView" : 8,
            "componentType" : 5126,
            "count" : 4590,
            "max" : [
                -0.01942911371588707,
                0.006415472365915775,
                0.5374283790588379
            ],
            "min" : [
                -0.02421541139483452,
                0.0016479294281452894,
                0.5324086546897888
            ],
            "type" : "VEC3"
        },
        {
            "bufferView" : 9,
            "componentType" : 5126,
            "count" : 4590,
            "type" : "VEC3"
        },
        {
            "bufferView" : 10,
            "componentType" : 5126,
            "count" : 4590,
            "type" : "VEC2"
        },
        {
            "bufferView" : 11,
            "componentType" : 5123,
            "count" : 4590,
            "type" : "SCALAR"
        },
        {
            "bufferView" : 12,
            "componentType" : 5126,
            "count" : 4608,
            "max" : [
                -0.014774634502828121,
                0.0073502445593476295,
                0.5439258813858032
            ],
            "min" : [
                -0.019521893933415413,
                0.0033445139415562153,
                0.5388702154159546
            ],
            "type" : "VEC3"
        },
        {
            "bufferView" : 13,
            "componentType" : 5126,
            "count" : 4608,
            "type" : "VEC3"
        },
        {
            "bufferView" : 14,
            "componentType" : 5126,
            "count" : 4608,
            "type" : "VEC2"
        },
        {
            "bufferView" : 15,
            "componentType" : 5123,
            "count" : 4608,
            "type" : "SCALAR"
        },
        {
            "bufferView" : 16,
            "componentType" : 5126,
            "count" : 4608,
            "max" : [
                -0.01958664134144783,
                0.007067525759339333,
                0.5379126071929932
            ],
            "min" : [
                -0.02470291592180729,
                0.003290757769718766,
                0.5326698422431946
            ],
            "type" : "VEC3"
        },
        {
            "bufferView" : 17,
            "componentType" : 5126,
            "count" : 4608,
            "type" : "VEC3"
        },
        {
            "bufferView" : 18,
            "componentType" : 5126,
            "count" : 4608,
            "type" : "VEC2"
        },
        {
            "bufferView" : 19,
            "componentType" : 5126,
            "count" : 3102,
            "max" : [
                -0.024883825331926346,
                0.006132368464022875,
                0.5442638397216797
            ],
            "min" : [
                -0.028424635529518127,
                0.0015711344312876463,
                0.5392388701438904
            ],
            "type" : "VEC3"
        },
        {
            "bufferView" : 20,
            "componentType" : 5126,
            "count" : 3102,
            "type" : "VEC3"
        },
        {
            "bufferView" : 21,
            "componentType" : 5126,
            "count" : 3102,
            "type" : "VEC2"
        },
        {
            "bufferView" : 22,
            "componentType" : 5123,
            "count" : 4608,
            "type" : "SCALAR"
        },
        {
            "bufferView" : 23,
            "componentType" : 5126,
            "count" : 2574,
            "max" : [
                -0.024714332073926926,
                0.005015882197767496,
                0.5449037551879883
            ],
            "min" : [
                -0.026677854359149933,
                0.0029309072997421026,
                0.5423959493637085
            ],
            "type" : "VEC3"
        },
        {
            "bufferView" : 24,
            "componentType" : 5126,
            "count" : 2574,
            "type" : "VEC3"
        },
        {
            "bufferView" : 25,
            "componentType" : 5126,
            "count" : 2574,
            "type" : "VEC2"
        },
        {
            "bufferView" : 26,
            "componentType" : 5123,
            "count" : 2574,
            "type" : "SCALAR"
        },
        {
            "bufferView" : 27,
            "componentType" : 5126,
            "count" : 2592,
            "max" : [
                -0.024314554408192635,
                0.0068069868721067905,
                0.5436453819274902
            ],
            "min" : [
                -0.027516132220625877,
                0.003102803835645318,
                0.5404564142227173
            ],
            "type" : "VEC3"
        },
        {
            "bufferView" : 28,
            "componentType" : 5126,
            "count" : 2592,
            "type" : "VEC3"
        },
        {
            "bufferView" : 29,
            "componentType" : 5126,
            "count" : 2592,
            "type" : "VEC2"
        },
        {
            "bufferView" : 30,
            "componentType" : 5123,
            "count" : 2592,
            "type" : "SCALAR"
        },
        {
            "bufferView" : 31,
            "componentType" : 5126,
            "count" : 4590,
            "max" : [
                -0.02508450858294964,
                0.0011412466410547495,
                0.5390667915344238
            ],
            "min" : [
                -0.0295611210167408,
                -0.0036697289906442165,
                0.5348370671272278
            ],
            "type" : "VEC3"
        },
        {
            "bufferView" : 32,
            "componentType" : 5126,
            "count" : 4590,
            "type" : "VEC3"
        },
        {
            "bufferView" : 33,
            "componentType" : 5126,
            "count" : 4590,
            "type" : "VEC2"
        },
        {
            "bufferView" : 34,
            "componentType" : 5126,
            "count" : 577,
            "max" : [
                24
            ],
            "min" : [
                0
            ],
            "type" : "SCALAR"
        },
        {
            "bufferView" : 35,
            "componentType" : 5126,
            "count" : 577,
            "type" : "VEC4"
        }
    ],
    "bufferViews" : [
        {
            "buffer" : 0,
            "byteLength" : 171072,
            "byteOffset" : 0
        },
        {
            "buffer" : 0,
            "byteLength" : 171072,
            "byteOffset" : 171072
        },
        {
            "buffer" : 0,
            "byteLength" : 114048,
            "byteOffset" : 342144
        },
        {
            "buffer" : 0,
            "byteLength" : 42588,
            "byteOffset" : 456192
        },
        {
            "buffer" : 0,
            "byteLength" : 103584,
            "byteOffset" : 498780
        },
        {
            "buffer" : 0,
            "byteLength" : 103584,
            "byteOffset" : 602364
        },
        {
            "buffer" : 0,
            "byteLength" : 69056,
            "byteOffset" : 705948
        },
        {
            "buffer" : 0,
            "byteLength" : 25668,
            "byteOffset" : 775004
        },
        {
            "buffer" : 0,
            "byteLength" : 55080,
            "byteOffset" : 800672
        },
        {
            "buffer" : 0,
            "byteLength" : 55080,
            "byteOffset" : 855752
        },
        {
            "buffer" : 0,
            "byteLength" : 36720,
            "byteOffset" : 910832
        },
        {
            "buffer" : 0,
            "byteLength" : 9180,
            "byteOffset" : 947552
        },
        {
            "buffer" : 0,
            "byteLength" : 55296,
            "byteOffset" : 956732
        },
        {
            "buffer" : 0,
            "byteLength" : 55296,
            "byteOffset" : 1012028
        },
        {
            "buffer" : 0,
            "byteLength" : 36864,
            "byteOffset" : 1067324
        },
        {
            "buffer" : 0,
            "byteLength" : 9216,
            "byteOffset" : 1104188
        },
        {
            "buffer" : 0,
            "byteLength" : 55296,
            "byteOffset" : 1113404
        },
        {
            "buffer" : 0,
            "byteLength" : 55296,
            "byteOffset" : 1168700
        },
        {
            "buffer" : 0,
            "byteLength" : 36864,
            "byteOffset" : 1223996
        },
        {
            "buffer" : 0,
            "byteLength" : 37224,
            "byteOffset" : 1260860
        },
        {
            "buffer" : 0,
            "byteLength" : 37224,
            "byteOffset" : 1298084
        },
        {
            "buffer" : 0,
            "byteLength" : 24816,
            "byteOffset" : 1335308
        },
        {
            "buffer" : 0,
            "byteLength" : 9216,
            "byteOffset" : 1360124
        },
        {
            "buffer" : 0,
            "byteLength" : 30888,
            "byteOffset" : 1369340
        },
        {
            "buffer" : 0,
            "byteLength" : 30888,
            "byteOffset" : 1400228
        },
        {
            "buffer" : 0,
            "byteLength" : 20592,
            "byteOffset" : 1431116
        },
        {
            "buffer" : 0,
            "byteLength" : 5148,
            "byteOffset" : 1451708
        },
        {
            "buffer" : 0,
            "byteLength" : 31104,
            "byteOffset" : 1456856
        },
        {
            "buffer" : 0,
            "byteLength" : 31104,
            "byteOffset" : 1487960
        },
        {
            "buffer" : 0,
            "byteLength" : 20736,
            "byteOffset" : 1519064
        },
        {
            "buffer" : 0,
            "byteLength" : 5184,
            "byteOffset" : 1539800
        },
        {
            "buffer" : 0,
            "byteLength" : 55080,
            "byteOffset" : 1544984
        },
        {
            "buffer" : 0,
            "byteLength" : 55080,
            "byteOffset" : 1600064
        },
        {
            "buffer" : 0,
            "byteLength" : 36720,
            "byteOffset" : 1655144
        },
        {
            "buffer" : 0,
            "byteLength" : 2308,
            "byteOffset" : 1691864
        },
        {
            "buffer" : 0,
            "byteLength" : 9232,
            "byteOffset" : 1694172
        }
    ],
    "buffers" : [
        {
            "byteLength" : 1703404,
            "uri" : "data:application/octet-stream;base64,"
        }
    ]
}
