{
    "asset" : {
        "generator" : "Khronos glTF Blender I/O v1.5.17",
        "version" : "2.0"
    },
    "scene" : 0,
    "scenes" : [
        {
            "name" : "Scene",
            "nodes" : [
                22
            ]
        }
    ],
    "nodes" : [
        {
            "mesh" : 0,
            "name" : "Earth_Planet1_Planet_Earth_body1_Earth_body_EarthGreen_0"
        },
        {
            "mesh" : 1,
            "name" : "Earth_Planet1_Planet_Earth_body1_Earth_body_Water_0"
        },
        {
            "children" : [
                0,
                1
            ],
            "name" : "Earth_Planet1_Planet_Earth_body1_Earth_body",
            "translation" : [
                -305.964599609375,
                0,
                5984.244140625
            ]
        },
        {
            "mesh" : 2,
            "name" : "Earth_Planet1_Planet_Mounts_Green_Mount10_Mount11_EarthGreen_0"
        },
        {
            "children" : [
                3
            ],
            "name" : "Earth_Planet1_Planet_Mounts_Green_Mount10_Mount11",
            "translation" : [
                -305.964599609375,
                0,
                5984.244140625
            ]
        },
        {
            "mesh" : 3,
            "name" : "Earth_Planet1_Planet_Mounts_Green_Mount13_Mount12_EarthGreen_0"
        },
        {
            "children" : [
                5
            ],
            "name" : "Earth_Planet1_Planet_Mounts_Green_Mount13_Mount12",
            "translation" : [
                -305.964599609375,
                0,
                5984.244140625
            ]
        },
        {
            "mesh" : 4,
            "name" : "Earth_Planet1_Planet_Mounts_Green_Mount2_Mount3_EarthGreen_0"
        },
        {
            "children" : [
                7
            ],
            "name" : "Earth_Planet1_Planet_Mounts_Green_Mount2_Mount3",
            "translation" : [
                -305.964599609375,
                0,
                5984.244140625
            ]
        },
        {
            "mesh" : 5,
            "name" : "Earth_Planet1_Planet_Mounts_Green_Mount4_Mount5_EarthGreen_0"
        },
        {
            "children" : [
                9
            ],
            "name" : "Earth_Planet1_Planet_Mounts_Green_Mount4_Mount5",
            "translation" : [
                -305.964599609375,
                0,
                5984.244140625
            ]
        },
        {
            "mesh" : 6,
            "name" : "Earth_Planet1_Planet_Mounts_Green_Mount6_Mount7_EarthGreen_0"
        },
        {
            "children" : [
                11
            ],
            "name" : "Earth_Planet1_Planet_Mounts_Green_Mount6_Mount7",
            "translation" : [
                -305.964599609375,
                0,
                5984.244140625
            ]
        },
        {
            "mesh" : 7,
            "name" : "Earth_Planet1_Planet_Mounts_Green_Mount8_Mount9_EarthGreen_0"
        },
        {
            "children" : [
                13
            ],
            "name" : "Earth_Planet1_Planet_Mounts_Green_Mount8_Mount9",
            "translation" : [
                -305.964599609375,
                0,
                5984.244140625
            ]
        },
        {
            "mesh" : 8,
            "name" : "Earth_Planet1_Planet_Mounts_Green_Mount_Mount1_EarthGreen_0"
        },
        {
            "children" : [
                15
            ],
            "name" : "Earth_Planet1_Planet_Mounts_Green_Mount_Mount1",
            "translation" : [
                -305.964599609375,
                0,
                5984.244140625
            ]
        },
        {
            "children" : [
                2,
                4,
                6,
                8,
                10,
                12,
                14,
                16
            ],
            "name" : "Earth",
            "scale" : [
                0.3937007784843445,
                0.3937007784843445,
                0.3937007784843445
            ],
            "translation" : [
                63.756195068359375,
                2.5757832527160645,
                -2355.25927734375
            ]
        },
        {
            "children" : [
                17
            ],
            "name" : "RootNode"
        },
        {
            "children" : [
                18
            ],
            "name" : "Node_3"
        },
        {
            "children" : [
                19
            ],
            "name" : "f5ab74d6bf0e43a2b1a25124d3e94a1b.fbx",
            "rotation" : [
                0.7071068286895752,
                0,
                0,
                0.7071068286895752
            ]
        },
        {
            "children" : [
                20
            ],
            "name" : "RootNode (model correction matrix)",
            "scale" : [
                0.00021848359028808773,
                0.00021848359028808773,
                0.00021848359028808773
            ]
        },
        {
            "children" : [
                21
            ],
            "name" : "RootNode (gltf orientation matrix)",
            "rotation" : [
                -0.7071068286895752,
                0,
                0,
                0.7071068286895752
            ]
        }
    ],
    "materials" : [
        {
            "doubleSided" : true,
            "name" : "EarthGreen",
            "pbrMetallicRoughness" : {
                "baseColorFactor" : [
                    0.43666398525238037,
                    0.6990290284156799,
                    0.39629998803138733,
                    1
                ],
                "metallicFactor" : 0
            }
        },
        {
            "doubleSided" : true,
            "name" : "Water",
            "pbrMetallicRoughness" : {
                "baseColorFactor" : [
                    0.21259799599647522,
                    0.4881890118122101,
                    1,
                    1
                ],
                "metallicFactor" : 0,
                "roughnessFactor" : 0.8868629336357117
            }
        }
    ],
    "meshes" : [
        {
            "name" : "Earth_Planet1_Planet_Earth_body1_Earth_body_EarthGreen_0",
            "primitives" : [
                {
                    "attributes" : {
                        "POSITION" : 0,
                        "NORMAL" : 1,
                        "TEXCOORD_0" : 2
                    },
                    "indices" : 3,
                    "material" : 0
                }
            ]
        },
        {
            "name" : "Earth_Planet1_Planet_Earth_body1_Earth_body_Water_0",
            "primitives" : [
                {
                    "attributes" : {
                        "POSITION" : 4,
                        "NORMAL" : 5,
                        "TEXCOORD_0" : 6
                    },
                    "indices" : 7,
                    "material" : 1
                }
            ]
        },
        {
            "name" : "Earth_Planet1_Planet_Mounts_Green_Mount10_Mount11_EarthGreen_0",
            "primitives" : [
                {
                    "attributes" : {
                        "POSITION" : 8,
                        "NORMAL" : 9,
                        "TEXCOORD_0" : 10
                    },
                    "indices" : 11,
                    "material" : 0
                }
            ]
        },
        {
            "name" : "Earth_Planet1_Planet_Mounts_Green_Mount13_Mount12_EarthGreen_0",
            "primitives" : [
                {
                    "attributes" : {
                        "POSITION" : 12,
                        "NORMAL" : 13,
                        "TEXCOORD_0" : 14
                    },
                    "indices" : 15,
                    "material" : 0
                }
            ]
        },
        {
            "name" : "Earth_Planet1_Planet_Mounts_Green_Mount2_Mount3_EarthGreen_0",
            "primitives" : [
                {
                    "attributes" : {
                        "POSITION" : 16,
                        "NORMAL" : 17,
                        "TEXCOORD_0" : 18
                    },
                    "indices" : 15,
                    "material" : 0
                }
            ]
        },
        {
            "name" : "Earth_Planet1_Planet_Mounts_Green_Mount4_Mount5_EarthGreen_0",
            "primitives" : [
                {
                    "attributes" : {
                        "POSITION" : 19,
                        "NORMAL" : 20,
                        "TEXCOORD_0" : 21
                    },
                    "indices" : 22,
                    "material" : 0
                }
            ]
        },
        {
            "name" : "Earth_Planet1_Planet_Mounts_Green_Mount6_Mount7_EarthGreen_0",
            "primitives" : [
                {
                    "attributes" : {
                        "POSITION" : 23,
                        "NORMAL" : 24,
                        "TEXCOORD_0" : 25
                    },
                    "indices" : 26,
                    "material" : 0
                }
            ]
        },
        {
            "name" : "Earth_Planet1_Planet_Mounts_Green_Mount8_Mount9_EarthGreen_0",
            "primitives" : [
                {
                    "attributes" : {
                        "POSITION" : 27,
                        "NORMAL" : 28,
                        "TEXCOORD_0" : 29
                    },
                    "indices" : 30,
                    "material" : 0
                }
            ]
        },
        {
            "name" : "Earth_Planet1_Planet_Mounts_Green_Mount_Mount1_EarthGreen_0",
            "primitives" : [
                {
                    "attributes" : {
                        "POSITION" : 31,
                        "NORMAL" : 32,
                        "TEXCOORD_0" : 33
                    },
                    "indices" : 11,
                    "material" : 0
                }
            ]
        }
    ],
    "accessors" : [
        {
            "bufferView" : 0,
            "componentType" : 5126,
            "count" : 14256,
            "max" : [
                106.4764175415039,
                101.22411346435547,
                96.47309112548828
            ],
            "min" : [
                -100.60343933105469,
                -104.77655029296875,
                -90.75831604003906
            ],
            "type" : "VEC3"
        },
        {
            "bufferView" : 1,
            "componentType" : 5126,
            "count" : 14256,
            "type" : "VEC3"
        },
        {
            "bufferView" : 2,
            "componentType" : 5126,
            "count" : 14256,
            "type" : "VEC2"
        },
        {
            "bufferView" : 3,
            "componentType" : 5123,
            "count" : 21294,
            "type" : "SCALAR"
        },
        {
            "bufferView" : 4,
            "componentType" : 5126,
            "count" : 8632,
            "max" : [
                106.4007339477539,
                97.33747100830078,
                97.5188980102539
            ],
            "min" : [
                -93.21420288085938,
                -98.19857788085938,
                -102.91349029541016
            ],
            "type" : "VEC3"
        },
        {
            "bufferView" : 5,
            "componentType" : 5126,
            "count" : 8632,
            "type" : "VEC3"
        },
        {
            "bufferView" : 6,
            "componentType" : 5126,
            "count" : 8632,
            "type" : "VEC2"
        },
        {
            "bufferView" : 7,
            "componentType" : 5123,
            "count" : 12834,
            "type" : "SCALAR"
        },
        {
            "bufferView" : 8,
            "componentType" : 5126,
            "count" : 4590,
            "max" : [
                15.657242774963379,
                74.58361053466797,
                -16.528501510620117
            ],
            "min" : [
                -40.284603118896484,
                19.158145904541016,
                -75.4166030883789
            ],
            "type" : "VEC3"
        },
        {
            "bufferView" : 9,
            "componentType" : 5126,
            "count" : 4590,
            "type" : "VEC3"
        },
        {
            "bufferView" : 10,
            "componentType" : 5126,
            "count" : 4590,
            "type" : "VEC2"
        },
        {
            "bufferView" : 11,
            "componentType" : 5123,
            "count" : 4590,
            "type" : "SCALAR"
        },
        {
            "bufferView" : 12,
            "componentType" : 5126,
            "count" : 4608,
            "max" : [
                67.70556640625,
                85.45088195800781,
                60.37734603881836
            ],
            "min" : [
                12.232295036315918,
                38.88192367553711,
                1.0934776067733765
            ],
            "type" : "VEC3"
        },
        {
            "bufferView" : 13,
            "componentType" : 5126,
            "count" : 4608,
            "type" : "VEC3"
        },
        {
            "bufferView" : 14,
            "componentType" : 5126,
            "count" : 4608,
            "type" : "VEC2"
        },
        {
            "bufferView" : 15,
            "componentType" : 5123,
            "count" : 4608,
            "type" : "SCALAR"
        },
        {
            "bufferView" : 16,
            "componentType" : 5126,
            "count" : 4608,
            "max" : [
                13.672375679016113,
                82.16411590576172,
                -11.304865837097168
            ],
            "min" : [
                -45.76424789428711,
                38.25698471069336,
                -72.15214538574219
            ],
            "type" : "VEC3"
        },
        {
            "bufferView" : 17,
            "componentType" : 5126,
            "count" : 4608,
            "type" : "VEC3"
        },
        {
            "bufferView" : 18,
            "componentType" : 5126,
            "count" : 4608,
            "type" : "VEC2"
        },
        {
            "bufferView" : 19,
            "componentType" : 5126,
            "count" : 3102,
            "max" : [
                -49.96387481689453,
                71.29236602783203,
                61.75078582763672
            ],
            "min" : [
                -90.78064727783203,
                18.265350341796875,
                3.168626546859741
            ],
            "type" : "VEC3"
        },
        {
            "bufferView" : 20,
            "componentType" : 5126,
            "count" : 3102,
            "type" : "VEC3"
        },
        {
            "bufferView" : 21,
            "componentType" : 5126,
            "count" : 3102,
            "type" : "VEC2"
        },
        {
            "bufferView" : 22,
            "componentType" : 5123,
            "count" : 4608,
            "type" : "SCALAR"
        },
        {
            "bufferView" : 23,
            "componentType" : 5126,
            "count" : 2574,
            "max" : [
                -48.46751022338867,
                58.312557220458984,
                69.13652801513672
            ],
            "min" : [
                -71.00726318359375,
                34.073509216308594,
                39.977718353271484
            ],
            "type" : "VEC3"
        },
        {
            "bufferView" : 24,
            "componentType" : 5126,
            "count" : 2574,
            "type" : "VEC3"
        },
        {
            "bufferView" : 25,
            "componentType" : 5126,
            "count" : 2574,
            "type" : "VEC2"
        },
        {
            "bufferView" : 26,
            "componentType" : 5123,
            "count" : 2574,
            "type" : "SCALAR"
        },
        {
            "bufferView" : 27,
            "componentType" : 5126,
            "count" : 2592,
            "max" : [
                -43.36823654174805,
                79.13519287109375,
                54.22838592529297
            ],
            "min" : [
                -80.56928253173828,
                36.071903228759766,
                17.553768157958984
            ],
            "type" : "VEC3"
        },
        {
            "bufferView" : 28,
            "componentType" : 5126,
            "count" : 2592,
            "type" : "VEC3"
        },
        {
            "bufferView" : 29,
            "componentType" : 5126,
            "count" : 2592,
            "type" : "VEC2"
        },
        {
            "bufferView" : 30,
            "componentType" : 5123,
            "count" : 2592,
            "type" : "SCALAR"
        },
        {
            "bufferView" : 31,
            "componentType" : 5126,
            "count" : 4590,
            "max" : [
                -50.502559661865234,
                13.267658233642578,
                0.7123595476150513
            ],
            "min" : [
                -102.5311508178711,
                -42.662742614746094,
                -48.033138275146484
            ],
            "type" : "VEC3"
        },
        {
            "bufferView" : 32,
            "componentType" : 5126,
            "count" : 4590,
            "type" : "VEC3"
        },
        {
            "bufferView" : 33,
            "componentType" : 5126,
            "count" : 4590,
            "type" : "VEC2"
        }
    ],
    "bufferViews" : [
        {
            "buffer" : 0,
            "byteLength" : 171072,
            "byteOffset" : 0
        },
        {
            "buffer" : 0,
            "byteLength" : 171072,
            "byteOffset" : 171072
        },
        {
            "buffer" : 0,
            "byteLength" : 114048,
            "byteOffset" : 342144
        },
        {
            "buffer" : 0,
            "byteLength" : 42588,
            "byteOffset" : 456192
        },
        {
            "buffer" : 0,
            "byteLength" : 103584,
            "byteOffset" : 498780
        },
        {
            "buffer" : 0,
            "byteLength" : 103584,
            "byteOffset" : 602364
        },
        {
            "buffer" : 0,
            "byteLength" : 69056,
            "byteOffset" : 705948
        },
        {
            "buffer" : 0,
            "byteLength" : 25668,
            "byteOffset" : 775004
        },
        {
            "buffer" : 0,
            "byteLength" : 55080,
            "byteOffset" : 800672
        },
        {
            "buffer" : 0,
            "byteLength" : 55080,
            "byteOffset" : 855752
        },
        {
            "buffer" : 0,
            "byteLength" : 36720,
            "byteOffset" : 910832
        },
        {
            "buffer" : 0,
            "byteLength" : 9180,
            "byteOffset" : 947552
        },
        {
            "buffer" : 0,
            "byteLength" : 55296,
            "byteOffset" : 956732
        },
        {
            "buffer" : 0,
            "byteLength" : 55296,
            "byteOffset" : 1012028
        },
        {
            "buffer" : 0,
            "byteLength" : 36864,
            "byteOffset" : 1067324
        },
        {
            "buffer" : 0,
            "byteLength" : 9216,
            "byteOffset" : 1104188
        },
        {
            "buffer" : 0,
            "byteLength" : 55296,
            "byteOffset" : 1113404
        },
        {
            "buffer" : 0,
            "byteLength" : 55296,
            "byteOffset" : 1168700
        },
        {
            "buffer" : 0,
            "byteLength" : 36864,
            "byteOffset" : 1223996
        },
        {
            "buffer" : 0,
            "byteLength" : 37224,
            "byteOffset" : 1260860
        },
        {
            "buffer" : 0,
            "byteLength" : 37224,
            "byteOffset" : 1298084
        },
        {
            "buffer" : 0,
            "byteLength" : 24816,
            "byteOffset" : 1335308
        },
        {
            "buffer" : 0,
            "byteLength" : 9216,
            "byteOffset" : 1360124
        },
        {
            "buffer" : 0,
            "byteLength" : 30888,
            "byteOffset" : 1369340
        },
        {
            "buffer" : 0,
            "byteLength" : 30888,
            "byteOffset" : 1400228
        },
        {
            "buffer" : 0,
            "byteLength" : 20592,
            "byteOffset" : 1431116
        },
        {
            "buffer" : 0,
            "byteLength" : 5148,
            "byteOffset" : 1451708
        },
        {
            "buffer" : 0,
            "byteLength" : 31104,
            "byteOffset" : 1456856
        },
        {
            "buffer" : 0,
            "byteLength" : 31104,
            "byteOffset" : 1487960
        },
        {
            "buffer" : 0,
            "byteLength" : 20736,
            "byteOffset" : 1519064
        },
        {
            "buffer" : 0,
            "byteLength" : 5184,
            "byteOffset" : 1539800
        },
        {
            "buffer" : 0,
            "byteLength" : 55080,
            "byteOffset" : 1544984
        },
        {
            "buffer" : 0,
            "byteLength" : 55080,
            "byteOffset" : 1600064
        },
        {
            "buffer" : 0,
            "byteLength" : 36720,
            "byteOffset" : 1655144
        }
    ],
    "buffers" : [
        {
            "byteLength" : 1691864,
            "uri" : "data:application/octet-stream;base64,"
        }
    ]
}
