{
    "asset" : {
        "generator" : "Khronos glTF Blender I/O v1.5.17",
        "version" : "2.0"
    },
    "scene" : 0,
    "scenes" : [
        {
            "name" : "Scene",
            "nodes" : [
                20
            ]
        }
    ],
    "nodes" : [
        {
            "mesh" : 0,
            "name" : "Jupiter_Sphere4_Jupiter_Sphere41_Ground_0",
            "translation" : [
                518.8172607421875,
                16.169809341430664,
                -7495.849609375
            ]
        },
        {
            "children" : [
                0
            ],
            "name" : "Jupiter_Sphere4_Jupiter_Sphere41",
            "translation" : [
                -582.4522705078125,
                -39.556129455566406,
                5253.73291015625
            ]
        },
        {
            "mesh" : 1,
            "name" : "Jupiter_Sphere_11_Ground_0"
        },
        {
            "children" : [
                2
            ],
            "name" : "Jupiter_Sphere_11",
            "translation" : [
                202.0245361328125,
                -23.386343002319336,
                -111.52462005615234
            ]
        },
        {
            "mesh" : 2,
            "name" : "Jupiter_Sphere_2_Sphere_21_Mat.7_0"
        },
        {
            "children" : [
                4
            ],
            "name" : "Jupiter_Sphere_2_Sphere_21",
            "translation" : [
                202.0245361328125,
                -23.386343002319336,
                -111.52462005615234
            ]
        },
        {
            "mesh" : 3,
            "name" : "Jupiter_Sphere_33_Sphere_32_Ground_0"
        },
        {
            "children" : [
                6
            ],
            "name" : "Jupiter_Sphere_33_Sphere_32",
            "translation" : [
                202.0245361328125,
                -23.386343002319336,
                -111.52462005615234
            ]
        },
        {
            "mesh" : 4,
            "name" : "Jupiter_Sphere_62_Sphere_63_Ground_0"
        },
        {
            "children" : [
                8
            ],
            "name" : "Jupiter_Sphere_62_Sphere_63",
            "translation" : [
                196.1939697265625,
                -23.386343002319336,
                -120.57344818115234
            ]
        },
        {
            "mesh" : 5,
            "name" : "Jupiter_Sphere_81_Sphere_8_Mat.7_0"
        },
        {
            "children" : [
                10
            ],
            "name" : "Jupiter_Sphere_81_Sphere_8",
            "translation" : [
                184.1646728515625,
                -19.200429916381836,
                -111.52462005615234
            ]
        },
        {
            "mesh" : 6,
            "name" : "Jupiter_Sphere_9_Sphere_93_Mat.7_0"
        },
        {
            "children" : [
                12
            ],
            "name" : "Jupiter_Sphere_9_Sphere_93",
            "translation" : [
                202.0245361328125,
                -23.386343002319336,
                -111.52462005615234
            ]
        },
        {
            "children" : [
                1,
                3,
                5,
                7,
                9,
                11,
                13
            ],
            "name" : "Jupiter_2"
        },
        {
            "children" : [
                14
            ],
            "name" : "Jupiter",
            "rotation" : [
                0,
                0.3649984896183014,
                0,
                0.9310081005096436
            ],
            "scale" : [
                0.3937007784843445,
                0.3937007784843445,
                0.3937007784843445
            ],
            "translation" : [
                -25.568359375,
                15.573284149169922,
                108.2333984375
            ]
        },
        {
            "children" : [
                15
            ],
            "name" : "RootNode"
        },
        {
            "children" : [
                16
            ],
            "name" : "Node_3"
        },
        {
            "children" : [
                17
            ],
            "name" : "f5ab74d6bf0e43a2b1a25124d3e94a1b.fbx",
            "rotation" : [
                0.7071068286895752,
                0,
                0,
                0.7071068286895752
            ]
        },
        {
            "children" : [
                18
            ],
            "name" : "RootNode (model correction matrix)",
            "scale" : [
                0.00021848359028808773,
                0.00021848359028808773,
                0.00021848359028808773
            ]
        },
        {
            "children" : [
                19
            ],
            "name" : "RootNode (gltf orientation matrix)",
            "rotation" : [
                -0.7071068286895752,
                0,
                0,
                0.7071068286895752
            ]
        }
    ],
    "materials" : [
        {
            "doubleSided" : true,
            "name" : "Ground_1",
            "pbrMetallicRoughness" : {
                "baseColorFactor" : [
                    0.8932039737701416,
                    0.5151749849319458,
                    0.3657209873199463,
                    1
                ],
                "metallicFactor" : 0,
                "roughnessFactor" : 0.9524317383766174
            }
        },
        {
            "doubleSided" : true,
            "name" : "Ground",
            "pbrMetallicRoughness" : {
                "baseColorFactor" : [
                    0.862842321395874,
                    0.5554640889167786,
                    0.4730442464351654,
                    1
                ],
                "metallicFactor" : 0
            }
        },
        {
            "doubleSided" : true,
            "name" : "Mat.7",
            "pbrMetallicRoughness" : {
                "baseColorFactor" : [
                    0.9223300218582153,
                    0.55799800157547,
                    0.297760009765625,
                    1
                ],
                "metallicFactor" : 0
            }
        },
        {
            "doubleSided" : true,
            "name" : "Ground_0",
            "pbrMetallicRoughness" : {
                "baseColorFactor" : [
                    0.7087380290031433,
                    0.3167929947376251,
                    0.22880500555038452,
                    1
                ],
                "metallicFactor" : 0
            }
        }
    ],
    "meshes" : [
        {
            "name" : "Jupiter_Sphere4_Jupiter_Sphere41_Ground_0",
            "primitives" : [
                {
                    "attributes" : {
                        "POSITION" : 0,
                        "NORMAL" : 1,
                        "TEXCOORD_0" : 2
                    },
                    "indices" : 3,
                    "material" : 0
                }
            ]
        },
        {
            "name" : "Jupiter_Sphere_11_Ground_0",
            "primitives" : [
                {
                    "attributes" : {
                        "POSITION" : 4,
                        "NORMAL" : 5,
                        "TEXCOORD_0" : 6
                    },
                    "indices" : 7,
                    "material" : 1
                }
            ]
        },
        {
            "name" : "Jupiter_Sphere_2_Sphere_21_Mat.7_0",
            "primitives" : [
                {
                    "attributes" : {
                        "POSITION" : 8,
                        "NORMAL" : 9,
                        "TEXCOORD_0" : 10
                    },
                    "indices" : 11,
                    "material" : 2
                }
            ]
        },
        {
            "name" : "Jupiter_Sphere_33_Sphere_32_Ground_0",
            "primitives" : [
                {
                    "attributes" : {
                        "POSITION" : 12,
                        "NORMAL" : 13,
                        "TEXCOORD_0" : 14
                    },
                    "indices" : 15,
                    "material" : 1
                }
            ]
        },
        {
            "name" : "Jupiter_Sphere_62_Sphere_63_Ground_0",
            "primitives" : [
                {
                    "attributes" : {
                        "POSITION" : 16,
                        "NORMAL" : 17,
                        "TEXCOORD_0" : 18
                    },
                    "indices" : 11,
                    "material" : 3
                }
            ]
        },
        {
            "name" : "Jupiter_Sphere_81_Sphere_8_Mat.7_0",
            "primitives" : [
                {
                    "attributes" : {
                        "POSITION" : 19,
                        "NORMAL" : 20,
                        "TEXCOORD_0" : 21
                    },
                    "indices" : 11,
                    "material" : 2
                }
            ]
        },
        {
            "name" : "Jupiter_Sphere_9_Sphere_93_Mat.7_0",
            "primitives" : [
                {
                    "attributes" : {
                        "POSITION" : 22,
                        "NORMAL" : 23,
                        "TEXCOORD_0" : 24
                    },
                    "indices" : 11,
                    "material" : 2
                }
            ]
        }
    ],
    "accessors" : [
        {
            "bufferView" : 0,
            "componentType" : 5126,
            "count" : 5988,
            "max" : [
                638.8368530273438,
                401.3334655761719,
                2488.331787109375
            ],
            "min" : [
                -92.69829559326172,
                -320.37744140625,
                1768.734619140625
            ],
            "type" : "VEC3"
        },
        {
            "bufferView" : 1,
            "componentType" : 5126,
            "count" : 5988,
            "type" : "VEC3"
        },
        {
            "bufferView" : 2,
            "componentType" : 5126,
            "count" : 5988,
            "type" : "VEC2"
        },
        {
            "bufferView" : 3,
            "componentType" : 5123,
            "count" : 5988,
            "type" : "SCALAR"
        },
        {
            "bufferView" : 4,
            "componentType" : 5126,
            "count" : 1356,
            "max" : [
                387.5197448730469,
                409.3416442871094,
                354.397705078125
            ],
            "min" : [
                -357.5722961425781,
                -318.75091552734375,
                -378.65203857421875
            ],
            "type" : "VEC3"
        },
        {
            "bufferView" : 5,
            "componentType" : 5126,
            "count" : 1356,
            "type" : "VEC3"
        },
        {
            "bufferView" : 6,
            "componentType" : 5126,
            "count" : 1356,
            "type" : "VEC2"
        },
        {
            "bufferView" : 7,
            "componentType" : 5123,
            "count" : 1356,
            "type" : "SCALAR"
        },
        {
            "bufferView" : 8,
            "componentType" : 5126,
            "count" : 1998,
            "max" : [
                360.23895263671875,
                67.36767578125,
                333.9446716308594
            ],
            "min" : [
                -308.88958740234375,
                -204.0257568359375,
                -337.3418884277344
            ],
            "type" : "VEC3"
        },
        {
            "bufferView" : 9,
            "componentType" : 5126,
            "count" : 1998,
            "type" : "VEC3"
        },
        {
            "bufferView" : 10,
            "componentType" : 5126,
            "count" : 1998,
            "type" : "VEC2"
        },
        {
            "bufferView" : 11,
            "componentType" : 5123,
            "count" : 1998,
            "type" : "SCALAR"
        },
        {
            "bufferView" : 12,
            "componentType" : 5126,
            "count" : 942,
            "max" : [
                369.69854736328125,
                291.031494140625,
                360.33111572265625
            ],
            "min" : [
                -346.9402160644531,
                -192.79722595214844,
                -368.3590087890625
            ],
            "type" : "VEC3"
        },
        {
            "bufferView" : 13,
            "componentType" : 5126,
            "count" : 942,
            "type" : "VEC3"
        },
        {
            "bufferView" : 14,
            "componentType" : 5126,
            "count" : 942,
            "type" : "VEC2"
        },
        {
            "bufferView" : 15,
            "componentType" : 5123,
            "count" : 942,
            "type" : "SCALAR"
        },
        {
            "bufferView" : 16,
            "componentType" : 5126,
            "count" : 1998,
            "max" : [
                376.52587890625,
                64.88789367675781,
                323.6728515625
            ],
            "min" : [
                -287.78839111328125,
                -221.7386016845703,
                -335.3941345214844
            ],
            "type" : "VEC3"
        },
        {
            "bufferView" : 17,
            "componentType" : 5126,
            "count" : 1998,
            "type" : "VEC3"
        },
        {
            "bufferView" : 18,
            "componentType" : 5126,
            "count" : 1998,
            "type" : "VEC2"
        },
        {
            "bufferView" : 19,
            "componentType" : 5126,
            "count" : 1998,
            "max" : [
                217.66473388671875,
                413.29791259765625,
                196.31446838378906
            ],
            "min" : [
                -178.3571319580078,
                240.7695770263672,
                -199.85189819335938
            ],
            "type" : "VEC3"
        },
        {
            "bufferView" : 20,
            "componentType" : 5126,
            "count" : 1998,
            "type" : "VEC3"
        },
        {
            "bufferView" : 21,
            "componentType" : 5126,
            "count" : 1998,
            "type" : "VEC2"
        },
        {
            "bufferView" : 22,
            "componentType" : 5126,
            "count" : 1998,
            "max" : [
                364.3139343261719,
                280.41668701171875,
                343.0034484863281
            ],
            "min" : [
                -329.3454284667969,
                -12.877175331115723,
                -355.1707458496094
            ],
            "type" : "VEC3"
        },
        {
            "bufferView" : 23,
            "componentType" : 5126,
            "count" : 1998,
            "type" : "VEC3"
        },
        {
            "bufferView" : 24,
            "componentType" : 5126,
            "count" : 1998,
            "type" : "VEC2"
        }
    ],
    "bufferViews" : [
        {
            "buffer" : 0,
            "byteLength" : 71856,
            "byteOffset" : 0
        },
        {
            "buffer" : 0,
            "byteLength" : 71856,
            "byteOffset" : 71856
        },
        {
            "buffer" : 0,
            "byteLength" : 47904,
            "byteOffset" : 143712
        },
        {
            "buffer" : 0,
            "byteLength" : 11976,
            "byteOffset" : 191616
        },
        {
            "buffer" : 0,
            "byteLength" : 16272,
            "byteOffset" : 203592
        },
        {
            "buffer" : 0,
            "byteLength" : 16272,
            "byteOffset" : 219864
        },
        {
            "buffer" : 0,
            "byteLength" : 10848,
            "byteOffset" : 236136
        },
        {
            "buffer" : 0,
            "byteLength" : 2712,
            "byteOffset" : 246984
        },
        {
            "buffer" : 0,
            "byteLength" : 23976,
            "byteOffset" : 249696
        },
        {
            "buffer" : 0,
            "byteLength" : 23976,
            "byteOffset" : 273672
        },
        {
            "buffer" : 0,
            "byteLength" : 15984,
            "byteOffset" : 297648
        },
        {
            "buffer" : 0,
            "byteLength" : 3996,
            "byteOffset" : 313632
        },
        {
            "buffer" : 0,
            "byteLength" : 11304,
            "byteOffset" : 317628
        },
        {
            "buffer" : 0,
            "byteLength" : 11304,
            "byteOffset" : 328932
        },
        {
            "buffer" : 0,
            "byteLength" : 7536,
            "byteOffset" : 340236
        },
        {
            "buffer" : 0,
            "byteLength" : 1884,
            "byteOffset" : 347772
        },
        {
            "buffer" : 0,
            "byteLength" : 23976,
            "byteOffset" : 349656
        },
        {
            "buffer" : 0,
            "byteLength" : 23976,
            "byteOffset" : 373632
        },
        {
            "buffer" : 0,
            "byteLength" : 15984,
            "byteOffset" : 397608
        },
        {
            "buffer" : 0,
            "byteLength" : 23976,
            "byteOffset" : 413592
        },
        {
            "buffer" : 0,
            "byteLength" : 23976,
            "byteOffset" : 437568
        },
        {
            "buffer" : 0,
            "byteLength" : 15984,
            "byteOffset" : 461544
        },
        {
            "buffer" : 0,
            "byteLength" : 23976,
            "byteOffset" : 477528
        },
        {
            "buffer" : 0,
            "byteLength" : 23976,
            "byteOffset" : 501504
        },
        {
            "buffer" : 0,
            "byteLength" : 15984,
            "byteOffset" : 525480
        }
    ],
    "buffers" : [
        {
            "byteLength" : 541464,
            "uri" : "data:application/octet-stream;base64,"
        }
    ]
}
