{
    "asset" : {
        "generator" : "Khronos glTF Blender I/O v1.5.17",
        "version" : "2.0"
    },
    "scene" : 0,
    "scenes" : [
        {
            "name" : "Scene",
            "nodes" : [
                11
            ]
        }
    ],
    "nodes" : [
        {
            "name" : "Mars_Sphere5",
            "translation" : [
                -178.80859375,
                -403.7159729003906,
                2138.25
            ]
        },
        {
            "mesh" : 0,
            "name" : "Mars_Sphere_16_Mars_0"
        },
        {
            "children" : [
                1
            ],
            "name" : "Mars_Sphere_16",
            "translation" : [
                -178.80859375,
                -403.7159729003906,
                2138.25
            ]
        },
        {
            "mesh" : 1,
            "name" : "Mars_Sphere_23_Ground_0"
        },
        {
            "children" : [
                3
            ],
            "name" : "Mars_Sphere_23",
            "translation" : [
                -178.80859375,
                -403.7159729003906,
                2138.25
            ]
        },
        {
            "children" : [
                0,
                2,
                4
            ],
            "name" : "Mars"
        },
        {
            "children" : [
                5
            ],
            "name" : "mars",
            "rotation" : [
                0,
                -0.6103578805923462,
                0,
                0.7921258211135864
            ],
            "scale" : [
                0.39370086789131165,
                0.3937007784843445,
                0.39370086789131165
            ],
            "translation" : [
                825.4371337890625,
                158.58306884765625,
                -167.84271240234375
            ]
        },
        {
            "children" : [
                6
            ],
            "name" : "RootNode"
        },
        {
            "children" : [
                7
            ],
            "name" : "Node_3"
        },
        {
            "children" : [
                8
            ],
            "name" : "f5ab74d6bf0e43a2b1a25124d3e94a1b.fbx",
            "rotation" : [
                0.7071068286895752,
                0,
                0,
                0.7071068286895752
            ]
        },
        {
            "children" : [
                9
            ],
            "name" : "RootNode (model correction matrix)",
            "scale" : [
                0.00021848359028808773,
                0.00021848359028808773,
                0.00021848359028808773
            ]
        },
        {
            "children" : [
                10
            ],
            "name" : "RootNode (gltf orientation matrix)",
            "rotation" : [
                -0.7071068286895752,
                0,
                0,
                0.7071068286895752
            ]
        }
    ],
    "materials" : [
        {
            "doubleSided" : true,
            "name" : "Mars",
            "pbrMetallicRoughness" : {
                "baseColorFactor" : [
                    0.9514560103416443,
                    0.19478599727153778,
                    0.19478599727153778,
                    1
                ],
                "metallicFactor" : 0,
                "roughnessFactor" : 0.9524317383766174
            }
        },
        {
            "doubleSided" : true,
            "name" : "Ground_0",
            "pbrMetallicRoughness" : {
                "baseColorFactor" : [
                    0.7087380290031433,
                    0.3167929947376251,
                    0.22880500555038452,
                    1
                ],
                "metallicFactor" : 0
            }
        }
    ],
    "meshes" : [
        {
            "name" : "Mars_Sphere_16_Mars_0",
            "primitives" : [
                {
                    "attributes" : {
                        "POSITION" : 0,
                        "NORMAL" : 1,
                        "TEXCOORD_0" : 2
                    },
                    "indices" : 3,
                    "material" : 0
                }
            ]
        },
        {
            "name" : "Mars_Sphere_23_Ground_0",
            "primitives" : [
                {
                    "attributes" : {
                        "POSITION" : 4,
                        "NORMAL" : 5,
                        "TEXCOORD_0" : 6
                    },
                    "indices" : 7,
                    "material" : 1
                }
            ]
        }
    ],
    "accessors" : [
        {
            "bufferView" : 0,
            "componentType" : 5126,
            "count" : 3282,
            "max" : [
                71.52957916259766,
                82.6888656616211,
                53.44851303100586
            ],
            "min" : [
                -52.81269836425781,
                -41.09434509277344,
                -69.51228332519531
            ],
            "type" : "VEC3"
        },
        {
            "bufferView" : 1,
            "componentType" : 5126,
            "count" : 3282,
            "type" : "VEC3"
        },
        {
            "bufferView" : 2,
            "componentType" : 5126,
            "count" : 3282,
            "type" : "VEC2"
        },
        {
            "bufferView" : 3,
            "componentType" : 5123,
            "count" : 3282,
            "type" : "SCALAR"
        },
        {
            "bufferView" : 4,
            "componentType" : 5126,
            "count" : 3630,
            "max" : [
                72.13511657714844,
                83.41475677490234,
                52.11854553222656
            ],
            "min" : [
                -49.90469741821289,
                -40.411705017089844,
                -70.07469940185547
            ],
            "type" : "VEC3"
        },
        {
            "bufferView" : 5,
            "componentType" : 5126,
            "count" : 3630,
            "type" : "VEC3"
        },
        {
            "bufferView" : 6,
            "componentType" : 5126,
            "count" : 3630,
            "type" : "VEC2"
        },
        {
            "bufferView" : 7,
            "componentType" : 5123,
            "count" : 3630,
            "type" : "SCALAR"
        }
    ],
    "bufferViews" : [
        {
            "buffer" : 0,
            "byteLength" : 39384,
            "byteOffset" : 0
        },
        {
            "buffer" : 0,
            "byteLength" : 39384,
            "byteOffset" : 39384
        },
        {
            "buffer" : 0,
            "byteLength" : 26256,
            "byteOffset" : 78768
        },
        {
            "buffer" : 0,
            "byteLength" : 6564,
            "byteOffset" : 105024
        },
        {
            "buffer" : 0,
            "byteLength" : 43560,
            "byteOffset" : 111588
        },
        {
            "buffer" : 0,
            "byteLength" : 43560,
            "byteOffset" : 155148
        },
        {
            "buffer" : 0,
            "byteLength" : 29040,
            "byteOffset" : 198708
        },
        {
            "buffer" : 0,
            "byteLength" : 7260,
            "byteOffset" : 227748
        }
    ],
    "buffers" : [
        {
            "byteLength" : 235008,
            "uri" : "data:application/octet-stream;base64,"
        }
    ]
}
