{
    "asset" : {
        "generator" : "Khronos glTF Blender I/O v1.5.17",
        "version" : "2.0"
    },
    "scene" : 0,
    "scenes" : [
        {
            "name" : "Scene",
            "nodes" : [
                5
            ]
        }
    ],
    "nodes" : [
        {
            "mesh" : 0,
            "name" : "Mesh_6"
        },
        {
            "children" : [
                0
            ],
            "name" : "Mars_4",
            "translation" : [
                -7.076297333696857e-05,
                -7.2103721322491765e-06,
                0
            ]
        },
        {
            "children" : [
                1
            ],
            "name" : "GLTF_SceneRootNode",
            "rotation" : [
                0.7071068286895752,
                0,
                0,
                0.7071068286895752
            ]
        },
        {
            "children" : [
                2
            ],
            "name" : "root"
        },
        {
            "children" : [
                3
            ],
            "name" : "RootNode (model correction matrix)"
        },
        {
            "children" : [
                4
            ],
            "name" : "RootNode (gltf orientation matrix)",
            "rotation" : [
                -0.7071068286895752,
                0,
                0,
                0.7071068286895752
            ]
        }
    ],
    "materials" : [
        {
            "doubleSided" : true,
            "name" : "Mars",
            "pbrMetallicRoughness" : {
                "baseColorTexture" : {
                    "index" : 0
                },
                "metallicFactor" : 0,
                "metallicRoughnessTexture" : {
                    "index" : 1
                }
            }
        }
    ],
    "meshes" : [
        {
            "name" : "Mesh_6",
            "primitives" : [
                {
                    "attributes" : {
                        "POSITION" : 0,
                        "NORMAL" : 1,
                        "TEXCOORD_0" : 2
                    },
                    "indices" : 3,
                    "material" : 0
                }
            ]
        }
    ],
    "textures" : [
        {
            "sampler" : 0,
            "source" : 0
        },
        {
            "sampler" : 0,
            "source" : 1
        }
    ],
    "images" : [
        {
            "bufferView" : 4,
            "mimeType" : "image/jpeg",
            "name" : "Mars_baseColor"
        },
        {
            "bufferView" : 5,
            "mimeType" : "image/png",
            "name" : "Mars_metallicRoughness"
        }
    ],
    "accessors" : [
        {
            "bufferView" : 0,
            "componentType" : 5126,
            "count" : 2617,
            "max" : [
                0.0033950000070035458,
                0.0033950000070035458,
                0.0033950000070035458
            ],
            "min" : [
                -0.003394999774172902,
                -0.0033950000070035458,
                -0.0033950000070035458
            ],
            "type" : "VEC3"
        },
        {
            "bufferView" : 1,
            "componentType" : 5126,
            "count" : 2617,
            "type" : "VEC3"
        },
        {
            "bufferView" : 2,
            "componentType" : 5126,
            "count" : 2617,
            "type" : "VEC2"
        },
        {
            "bufferView" : 3,
            "componentType" : 5123,
            "count" : 15360,
            "type" : "SCALAR"
        }
    ],
    "bufferViews" : [
        {
            "buffer" : 0,
            "byteLength" : 31404,
            "byteOffset" : 0
        },
        {
            "buffer" : 0,
            "byteLength" : 31404,
            "byteOffset" : 31404
        },
        {
            "buffer" : 0,
            "byteLength" : 20936,
            "byteOffset" : 62808
        },
        {
            "buffer" : 0,
            "byteLength" : 30720,
            "byteOffset" : 83744
        },
        {
            "buffer" : 0,
            "byteLength" : 436666,
            "byteOffset" : 114464
        },
        {
            "buffer" : 0,
            "byteLength" : 242878,
            "byteOffset" : 551132
        }
    ],
    "samplers" : [
        {
            "magFilter" : 9729,
            "minFilter" : 9987
        }
    ],
    "buffers" : [
        {
            "byteLength" : 794012,
            "uri" : "data:application/octet-stream;base64,"
        }
    ]
}
