{
    "asset" : {
        "generator" : "Khronos glTF Blender I/O v1.5.17",
        "version" : "2.0"
    },
    "scene" : 0,
    "scenes" : [
        {
            "name" : "Scene",
            "nodes" : [
                12
            ]
        }
    ],
    "nodes" : [
        {
            "mesh" : 0,
            "name" : "Mercury_Sphere6_Ground_0",
            "translation" : [
                644.3193969726562,
                1.7527168989181519,
                -4552.45947265625
            ]
        },
        {
            "children" : [
                0
            ],
            "name" : "Mercury_Sphere6",
            "translation" : [
                -374.48162841796875,
                2.432515859603882,
                4777.7685546875
            ]
        },
        {
            "mesh" : 1,
            "name" : "Mercury_Sphere_14_Ice_0",
            "translation" : [
                644.3193969726562,
                1.7527168989181519,
                -4552.45947265625
            ]
        },
        {
            "children" : [
                2
            ],
            "name" : "Mercury_Sphere_14",
            "translation" : [
                -374.69244384765625,
                4.234520435333252,
                4777.82861328125
            ]
        },
        {
            "mesh" : 2,
            "name" : "Mercury_Sphere_211_Venus_0",
            "translation" : [
                644.3193969726562,
                1.7527168989181519,
                -4552.45947265625
            ]
        },
        {
            "children" : [
                4
            ],
            "name" : "Mercury_Sphere_211",
            "translation" : [
                -374.48162841796875,
                4.234520435333252,
                4777.7685546875
            ]
        },
        {
            "children" : [
                1,
                3,
                5
            ],
            "name" : "Mercury"
        },
        {
            "children" : [
                6
            ],
            "name" : "Null",
            "rotation" : [
                0,
                0.9020940065383911,
                0,
                0.4315396249294281
            ],
            "scale" : [
                0.3937007784843445,
                0.3937007784843445,
                0.3937007784843445
            ],
            "translation" : [
                3.1226806640625,
                -1.6671342849731445,
                138.298828125
            ]
        },
        {
            "children" : [
                7
            ],
            "name" : "RootNode"
        },
        {
            "children" : [
                8
            ],
            "name" : "Node_3"
        },
        {
            "children" : [
                9
            ],
            "name" : "f5ab74d6bf0e43a2b1a25124d3e94a1b.fbx",
            "rotation" : [
                0.7071068286895752,
                0,
                0,
                0.7071068286895752
            ]
        },
        {
            "children" : [
                10
            ],
            "name" : "RootNode (model correction matrix)",
            "scale" : [
                0.00021848359028808773,
                0.00021848359028808773,
                0.00021848359028808773
            ]
        },
        {
            "children" : [
                11
            ],
            "name" : "RootNode (gltf orientation matrix)",
            "rotation" : [
                -0.7071068286895752,
                0,
                0,
                0.7071068286895752
            ]
        }
    ],
    "materials" : [
        {
            "doubleSided" : true,
            "name" : "Ground",
            "pbrMetallicRoughness" : {
                "baseColorFactor" : [
                    0.862842321395874,
                    0.5554640889167786,
                    0.4730442464351654,
                    1
                ],
                "metallicFactor" : 0
            }
        },
        {
            "doubleSided" : true,
            "name" : "material",
            "pbrMetallicRoughness" : {
                "baseColorFactor" : [
                    0.9223300218582153,
                    0.9223300218582153,
                    0.9223300218582153,
                    1
                ],
                "metallicFactor" : 0,
                "roughnessFactor" : 0.9524317383766174
            }
        },
        {
            "doubleSided" : true,
            "name" : "Venus",
            "pbrMetallicRoughness" : {
                "baseColorFactor" : [
                    0.25640198588371277,
                    0.27568700909614563,
                    0.8349509835243225,
                    1
                ],
                "metallicFactor" : 0
            }
        }
    ],
    "meshes" : [
        {
            "name" : "Mercury_Sphere6_Ground_0",
            "primitives" : [
                {
                    "attributes" : {
                        "POSITION" : 0,
                        "NORMAL" : 1,
                        "TEXCOORD_0" : 2
                    },
                    "indices" : 3,
                    "material" : 0
                }
            ]
        },
        {
            "name" : "Mercury_Sphere_14_Ice_0",
            "primitives" : [
                {
                    "attributes" : {
                        "POSITION" : 4,
                        "NORMAL" : 5,
                        "TEXCOORD_0" : 6
                    },
                    "indices" : 7,
                    "material" : 1
                }
            ]
        },
        {
            "name" : "Mercury_Sphere_211_Venus_0",
            "primitives" : [
                {
                    "attributes" : {
                        "POSITION" : 8,
                        "NORMAL" : 9,
                        "TEXCOORD_0" : 10
                    },
                    "indices" : 11,
                    "material" : 2
                }
            ]
        }
    ],
    "accessors" : [
        {
            "bufferView" : 0,
            "componentType" : 5126,
            "count" : 21372,
            "max" : [
                59.8762321472168,
                58.95393753051758,
                55.09745788574219
            ],
            "min" : [
                -57.99909591674805,
                -63.77491760253906,
                -57.805419921875
            ],
            "type" : "VEC3"
        },
        {
            "bufferView" : 1,
            "componentType" : 5126,
            "count" : 21372,
            "type" : "VEC3"
        },
        {
            "bufferView" : 2,
            "componentType" : 5126,
            "count" : 21372,
            "type" : "VEC2"
        },
        {
            "bufferView" : 3,
            "componentType" : 5123,
            "count" : 21372,
            "type" : "SCALAR"
        },
        {
            "bufferView" : 4,
            "componentType" : 5126,
            "count" : 3282,
            "max" : [
                60.884986877441406,
                57.887699127197266,
                58.56500244140625
            ],
            "min" : [
                -60.2289924621582,
                -63.39592742919922,
                -61.330875396728516
            ],
            "type" : "VEC3"
        },
        {
            "bufferView" : 5,
            "componentType" : 5126,
            "count" : 3282,
            "type" : "VEC3"
        },
        {
            "bufferView" : 6,
            "componentType" : 5126,
            "count" : 3282,
            "type" : "VEC2"
        },
        {
            "bufferView" : 7,
            "componentType" : 5123,
            "count" : 3282,
            "type" : "SCALAR"
        },
        {
            "bufferView" : 8,
            "componentType" : 5126,
            "count" : 8298,
            "max" : [
                63.54151916503906,
                59.94992446899414,
                59.074180603027344
            ],
            "min" : [
                -60.89632034301758,
                -65.02172088623047,
                -64.2385482788086
            ],
            "type" : "VEC3"
        },
        {
            "bufferView" : 9,
            "componentType" : 5126,
            "count" : 8298,
            "type" : "VEC3"
        },
        {
            "bufferView" : 10,
            "componentType" : 5126,
            "count" : 8298,
            "type" : "VEC2"
        },
        {
            "bufferView" : 11,
            "componentType" : 5123,
            "count" : 8298,
            "type" : "SCALAR"
        }
    ],
    "bufferViews" : [
        {
            "buffer" : 0,
            "byteLength" : 256464,
            "byteOffset" : 0
        },
        {
            "buffer" : 0,
            "byteLength" : 256464,
            "byteOffset" : 256464
        },
        {
            "buffer" : 0,
            "byteLength" : 170976,
            "byteOffset" : 512928
        },
        {
            "buffer" : 0,
            "byteLength" : 42744,
            "byteOffset" : 683904
        },
        {
            "buffer" : 0,
            "byteLength" : 39384,
            "byteOffset" : 726648
        },
        {
            "buffer" : 0,
            "byteLength" : 39384,
            "byteOffset" : 766032
        },
        {
            "buffer" : 0,
            "byteLength" : 26256,
            "byteOffset" : 805416
        },
        {
            "buffer" : 0,
            "byteLength" : 6564,
            "byteOffset" : 831672
        },
        {
            "buffer" : 0,
            "byteLength" : 99576,
            "byteOffset" : 838236
        },
        {
            "buffer" : 0,
            "byteLength" : 99576,
            "byteOffset" : 937812
        },
        {
            "buffer" : 0,
            "byteLength" : 66384,
            "byteOffset" : 1037388
        },
        {
            "buffer" : 0,
            "byteLength" : 16596,
            "byteOffset" : 1103772
        }
    ],
    "buffers" : [
        {
            "byteLength" : 1120368,
            "uri" : "data:application/octet-stream;base64,"
        }
    ]
}
