{
    "asset" : {
        "generator" : "Khronos glTF Blender I/O v1.5.17",
        "version" : "2.0"
    },
    "scene" : 0,
    "scenes" : [
        {
            "name" : "Scene",
            "nodes" : [
                8
            ]
        }
    ],
    "nodes" : [
        {
            "mesh" : 0,
            "name" : "Neptune_Sphere_26_Water_0",
            "translation" : [
                -3870.89892578125,
                -3242.25390625,
                -5021.1298828125
            ]
        },
        {
            "children" : [
                0
            ],
            "name" : "Neptune_Sphere_26",
            "translation" : [
                2946.198974609375,
                2391.19921875,
                6402.630859375
            ]
        },
        {
            "children" : [
                1
            ],
            "name" : "Neptune"
        },
        {
            "children" : [
                2
            ],
            "name" : "neptune",
            "rotation" : [
                0,
                -0.11578495800495148,
                0,
                0.9932743310928345
            ],
            "scale" : [
                0.3937006890773773,
                0.3937007784843445,
                0.3937006890773773
            ],
            "translation" : [
                471.85113525390625,
                335.4854431152344,
                -449.595703125
            ]
        },
        {
            "children" : [
                3
            ],
            "name" : "RootNode"
        },
        {
            "children" : [
                4
            ],
            "name" : "Node_3"
        },
        {
            "children" : [
                5
            ],
            "name" : "f5ab74d6bf0e43a2b1a25124d3e94a1b.fbx",
            "rotation" : [
                0.7071068286895752,
                0,
                0,
                0.7071068286895752
            ]
        },
        {
            "children" : [
                6
            ],
            "name" : "RootNode (model correction matrix)",
            "scale" : [
                0.00021848359028808773,
                0.00021848359028808773,
                0.00021848359028808773
            ]
        },
        {
            "children" : [
                7
            ],
            "name" : "RootNode (gltf orientation matrix)",
            "rotation" : [
                -0.7071068286895752,
                0,
                0,
                0.7071068286895752
            ]
        }
    ],
    "materials" : [
        {
            "doubleSided" : true,
            "name" : "Water_0",
            "pbrMetallicRoughness" : {
                "baseColorFactor" : [
                    0.11581700295209885,
                    0.360834002494812,
                    0.9805830121040344,
                    1
                ],
                "metallicFactor" : 0,
                "roughnessFactor" : 0.8868629336357117
            }
        }
    ],
    "meshes" : [
        {
            "name" : "Neptune_Sphere_26_Water_0",
            "primitives" : [
                {
                    "attributes" : {
                        "POSITION" : 0,
                        "NORMAL" : 1,
                        "TEXCOORD_0" : 2
                    },
                    "indices" : 3,
                    "material" : 0
                }
            ]
        }
    ],
    "accessors" : [
        {
            "bufferView" : 0,
            "componentType" : 5126,
            "count" : 5400,
            "max" : [
                164.19976806640625,
                163.1946258544922,
                156.22714233398438
            ],
            "min" : [
                -158.62994384765625,
                -160.71461486816406,
                -165.97998046875
            ],
            "type" : "VEC3"
        },
        {
            "bufferView" : 1,
            "componentType" : 5126,
            "count" : 5400,
            "type" : "VEC3"
        },
        {
            "bufferView" : 2,
            "componentType" : 5126,
            "count" : 5400,
            "type" : "VEC2"
        },
        {
            "bufferView" : 3,
            "componentType" : 5123,
            "count" : 5400,
            "type" : "SCALAR"
        }
    ],
    "bufferViews" : [
        {
            "buffer" : 0,
            "byteLength" : 64800,
            "byteOffset" : 0
        },
        {
            "buffer" : 0,
            "byteLength" : 64800,
            "byteOffset" : 64800
        },
        {
            "buffer" : 0,
            "byteLength" : 43200,
            "byteOffset" : 129600
        },
        {
            "buffer" : 0,
            "byteLength" : 10800,
            "byteOffset" : 172800
        }
    ],
    "buffers" : [
        {
            "byteLength" : 183600,
            "uri" : "data:application/octet-stream;base64,"
        }
    ]
}
