{
    "asset" : {
        "generator" : "Khronos glTF Blender I/O v1.5.17",
        "version" : "2.0"
    },
    "scene" : 0,
    "scenes" : [
        {
            "name" : "Scene",
            "nodes" : [
                7
            ]
        }
    ],
    "nodes" : [
        {
            "mesh" : 0,
            "name" : "Pluto_Sphere_25_Ground_0",
            "translation" : [
                -351.32965087890625,
                -4335.92919921875,
                -10998.8447265625
            ]
        },
        {
            "children" : [
                0
            ],
            "name" : "Pluto_Sphere_25",
            "translation" : [
                -275.3558349609375,
                4133.8701171875,
                10445.6533203125
            ]
        },
        {
            "children" : [
                1
            ],
            "name" : "Pluto",
            "rotation" : [
                0.18731707334518433,
                0,
                0,
                0.9822995066642761
            ],
            "scale" : [
                0.3937007784843445,
                0.39370080828666687,
                0.39370080828666687
            ],
            "translation" : [
                256.256591796875,
                -6.993952751159668,
                225.57447814941406
            ]
        },
        {
            "children" : [
                2
            ],
            "name" : "RootNode"
        },
        {
            "children" : [
                3
            ],
            "name" : "Node_3"
        },
        {
            "children" : [
                4
            ],
            "name" : "f5ab74d6bf0e43a2b1a25124d3e94a1b.fbx",
            "rotation" : [
                0.7071068286895752,
                0,
                0,
                0.7071068286895752
            ]
        },
        {
            "children" : [
                5
            ],
            "name" : "RootNode (model correction matrix)",
            "scale" : [
                0.00021848359028808773,
                0.00021848359028808773,
                0.00021848359028808773
            ]
        },
        {
            "children" : [
                6
            ],
            "name" : "RootNode (gltf orientation matrix)",
            "rotation" : [
                -0.7071068286895752,
                0,
                0,
                0.7071068286895752
            ]
        }
    ],
    "materials" : [
        {
            "doubleSided" : true,
            "name" : "Ground",
            "pbrMetallicRoughness" : {
                "baseColorFactor" : [
                    0.862842321395874,
                    0.5554640889167786,
                    0.4730442464351654,
                    1
                ],
                "metallicFactor" : 0
            }
        }
    ],
    "meshes" : [
        {
            "name" : "Pluto_Sphere_25_Ground_0",
            "primitives" : [
                {
                    "attributes" : {
                        "POSITION" : 0,
                        "NORMAL" : 1,
                        "TEXCOORD_0" : 2
                    },
                    "indices" : 3,
                    "material" : 0
                }
            ]
        }
    ],
    "accessors" : [
        {
            "bufferView" : 0,
            "componentType" : 5126,
            "count" : 1350,
            "max" : [
                38.66197967529297,
                36.75422668457031,
                38.65720748901367
            ],
            "min" : [
                -39.9711799621582,
                -42.12554168701172,
                -39.25991439819336
            ],
            "type" : "VEC3"
        },
        {
            "bufferView" : 1,
            "componentType" : 5126,
            "count" : 1350,
            "type" : "VEC3"
        },
        {
            "bufferView" : 2,
            "componentType" : 5126,
            "count" : 1350,
            "type" : "VEC2"
        },
        {
            "bufferView" : 3,
            "componentType" : 5123,
            "count" : 1350,
            "type" : "SCALAR"
        }
    ],
    "bufferViews" : [
        {
            "buffer" : 0,
            "byteLength" : 16200,
            "byteOffset" : 0
        },
        {
            "buffer" : 0,
            "byteLength" : 16200,
            "byteOffset" : 16200
        },
        {
            "buffer" : 0,
            "byteLength" : 10800,
            "byteOffset" : 32400
        },
        {
            "buffer" : 0,
            "byteLength" : 2700,
            "byteOffset" : 43200
        }
    ],
    "buffers" : [
        {
            "byteLength" : 45900,
            "uri" : "data:application/octet-stream;base64,"
        }
    ]
}
