{
    "asset" : {
        "generator" : "Khronos glTF Blender I/O v1.5.17",
        "version" : "2.0"
    },
    "scene" : 0,
    "scenes" : [
        {
            "name" : "Scene",
            "nodes" : [
                6
            ]
        }
    ],
    "nodes" : [
        {
            "mesh" : 0,
            "name" : "Mesh_8"
        },
        {
            "mesh" : 1,
            "name" : "Mesh_9"
        },
        {
            "children" : [
                0,
                1
            ],
            "name" : "Saturn_6",
            "rotation" : [
                0.2241438925266266,
                0.4829629957675934,
                -0.1294095516204834,
                0.8365163803100586
            ],
            "translation" : [
                -0.00011446722783148289,
                -0.0001304534962400794,
                0.00022214476484805346
            ]
        },
        {
            "children" : [
                2
            ],
            "name" : "GLTF_SceneRootNode",
            "rotation" : [
                0.7071068286895752,
                0,
                0,
                0.7071068286895752
            ]
        },
        {
            "children" : [
                3
            ],
            "name" : "root"
        },
        {
            "children" : [
                4
            ],
            "name" : "RootNode (model correction matrix)"
        },
        {
            "children" : [
                5
            ],
            "name" : "RootNode (gltf orientation matrix)",
            "rotation" : [
                -0.7071068286895752,
                0,
                0,
                0.7071068286895752
            ]
        }
    ],
    "materials" : [
        {
            "doubleSided" : true,
            "emissiveFactor" : [
                1,
                1,
                1
            ],
            "emissiveTexture" : {
                "index" : 0
            },
            "name" : "Saturn",
            "pbrMetallicRoughness" : {
                "baseColorTexture" : {
                    "index" : 1
                },
                "metallicFactor" : 0,
                "metallicRoughnessTexture" : {
                    "index" : 2
                }
            }
        },
        {
            "alphaMode" : "BLEND",
            "doubleSided" : true,
            "name" : "Saturn_Rings",
            "pbrMetallicRoughness" : {
                "baseColorTexture" : {
                    "index" : 3
                },
                "metallicFactor" : 0,
                "roughnessFactor" : 0.5
            }
        }
    ],
    "meshes" : [
        {
            "name" : "Mesh_8",
            "primitives" : [
                {
                    "attributes" : {
                        "POSITION" : 0,
                        "NORMAL" : 1,
                        "TEXCOORD_0" : 2
                    },
                    "indices" : 3,
                    "material" : 0
                }
            ]
        },
        {
            "name" : "Mesh_9",
            "primitives" : [
                {
                    "attributes" : {
                        "POSITION" : 4,
                        "NORMAL" : 5,
                        "TEXCOORD_0" : 6
                    },
                    "indices" : 7,
                    "material" : 1
                }
            ]
        }
    ],
    "textures" : [
        {
            "sampler" : 0,
            "source" : 0
        },
        {
            "sampler" : 0,
            "source" : 1
        },
        {
            "sampler" : 0,
            "source" : 2
        },
        {
            "sampler" : 0,
            "source" : 3
        }
    ],
    "images" : [
        {
            "bufferView" : 4,
            "mimeType" : "image/jpeg",
            "name" : "Saturn_emissive"
        },
        {
            "bufferView" : 5,
            "mimeType" : "image/jpeg",
            "name" : "Saturn_baseColor"
        },
        {
            "bufferView" : 6,
            "mimeType" : "image/png",
            "name" : "Saturn_metallicRoughness"
        },
        {
            "bufferView" : 11,
            "mimeType" : "image/png",
            "name" : "Saturn_Rings_baseColor"
        }
    ],
    "accessors" : [
        {
            "bufferView" : 0,
            "componentType" : 5126,
            "count" : 2617,
            "max" : [
                0.060270000249147415,
                0.060270000249147415,
                0.06026999652385712
            ],
            "min" : [
                -0.06026999652385712,
                -0.060270000249147415,
                -0.06026999652385712
            ],
            "type" : "VEC3"
        },
        {
            "bufferView" : 1,
            "componentType" : 5126,
            "count" : 2617,
            "type" : "VEC3"
        },
        {
            "bufferView" : 2,
            "componentType" : 5126,
            "count" : 2617,
            "type" : "VEC2"
        },
        {
            "bufferView" : 3,
            "componentType" : 5123,
            "count" : 15360,
            "type" : "SCALAR"
        },
        {
            "bufferView" : 7,
            "componentType" : 5126,
            "count" : 480,
            "max" : [
                0.12039870768785477,
                1.3284420674608555e-07,
                0.12039874494075775
            ],
            "min" : [
                -0.12039872258901596,
                -4.4773841523237934e-07,
                -0.12039870768785477
            ],
            "type" : "VEC3"
        },
        {
            "bufferView" : 8,
            "componentType" : 5126,
            "count" : 480,
            "type" : "VEC3"
        },
        {
            "bufferView" : 9,
            "componentType" : 5126,
            "count" : 480,
            "type" : "VEC2"
        },
        {
            "bufferView" : 10,
            "componentType" : 5123,
            "count" : 480,
            "type" : "SCALAR"
        }
    ],
    "bufferViews" : [
        {
            "buffer" : 0,
            "byteLength" : 31404,
            "byteOffset" : 0
        },
        {
            "buffer" : 0,
            "byteLength" : 31404,
            "byteOffset" : 31404
        },
        {
            "buffer" : 0,
            "byteLength" : 20936,
            "byteOffset" : 62808
        },
        {
            "buffer" : 0,
            "byteLength" : 30720,
            "byteOffset" : 83744
        },
        {
            "buffer" : 0,
            "byteLength" : 81508,
            "byteOffset" : 114464
        },
        {
            "buffer" : 0,
            "byteLength" : 378788,
            "byteOffset" : 195972
        },
        {
            "buffer" : 0,
            "byteLength" : 309309,
            "byteOffset" : 574760
        },
        {
            "buffer" : 0,
            "byteLength" : 5760,
            "byteOffset" : 884072
        },
        {
            "buffer" : 0,
            "byteLength" : 5760,
            "byteOffset" : 889832
        },
        {
            "buffer" : 0,
            "byteLength" : 3840,
            "byteOffset" : 895592
        },
        {
            "buffer" : 0,
            "byteLength" : 960,
            "byteOffset" : 899432
        },
        {
            "buffer" : 0,
            "byteLength" : 39196,
            "byteOffset" : 900392
        }
    ],
    "samplers" : [
        {
            "magFilter" : 9729,
            "minFilter" : 9987
        }
    ],
    "buffers" : [
        {
            "byteLength" : 939588,
            "uri" : "data:application/octet-stream;base64,"
        }
    ]
}
