{
    "asset" : {
        "generator" : "Khronos glTF Blender I/O v1.5.17",
        "version" : "2.0"
    },
    "scene" : 0,
    "scenes" : [
        {
            "name" : "Scene",
            "nodes" : [
                13
            ]
        }
    ],
    "nodes" : [
        {
            "mesh" : 0,
            "name" : "Sun1__1_Sphere_4_Sphere_41_Sun 1_0"
        },
        {
            "children" : [
                0
            ],
            "name" : "Sun1__1_Sphere_4_Sphere_41",
            "translation" : [
                -90.19953918457031,
                11.296154022216797,
                -117.00051879882812
            ]
        },
        {
            "mesh" : 1,
            "name" : "Sun1_Sphere10_Sun 3_0"
        },
        {
            "children" : [
                2
            ],
            "name" : "Sun1_Sphere10",
            "translation" : [
                -149.86338806152344,
                11.29615306854248,
                -206.49624633789062
            ]
        },
        {
            "mesh" : 2,
            "name" : "Sun1_Sphere_36_Sphere_42_Sphere_43_Sun 2_0"
        },
        {
            "children" : [
                4
            ],
            "name" : "Sun1_Sphere_36_Sphere_42_Sphere_43",
            "translation" : [
                -151.65562438964844,
                68.3010025024414,
                -148.5023193359375
            ]
        },
        {
            "mesh" : 3,
            "name" : "Sun1_Sphere_91_Sphere_44_Sphere_49_Sun 1_0"
        },
        {
            "children" : [
                6
            ],
            "name" : "Sun1_Sphere_91_Sphere_44_Sphere_49",
            "translation" : [
                -90.19953918457031,
                11.296154022216797,
                -117.00051879882812
            ]
        },
        {
            "children" : [
                1,
                3,
                5,
                7
            ],
            "name" : "Sun",
            "scale" : [
                0.3937007784843445,
                0.3937007784843445,
                0.3937007784843445
            ],
            "translation" : [
                11.3184814453125,
                -4.447303771972656,
                111.8082275390625
            ]
        },
        {
            "children" : [
                8
            ],
            "name" : "RootNode"
        },
        {
            "children" : [
                9
            ],
            "name" : "Node_3"
        },
        {
            "children" : [
                10
            ],
            "name" : "f5ab74d6bf0e43a2b1a25124d3e94a1b.fbx",
            "rotation" : [
                0.7071068286895752,
                0,
                0,
                0.7071068286895752
            ]
        },
        {
            "children" : [
                11
            ],
            "name" : "RootNode (model correction matrix)",
            "scale" : [
                0.00021848359028808773,
                0.00021848359028808773,
                0.00021848359028808773
            ]
        },
        {
            "children" : [
                12
            ],
            "name" : "RootNode (gltf orientation matrix)",
            "rotation" : [
                -0.7071068286895752,
                0,
                0,
                0.7071068286895752
            ]
        }
    ],
    "materials" : [
        {
            "alphaMode" : "BLEND",
            "doubleSided" : true,
            "emissiveFactor" : [
                0.8999999761581421,
                0.1594489961862564,
                0.09212599694728851
            ],
            "name" : "Sun_1",
            "pbrMetallicRoughness" : {
                "baseColorFactor" : [
                    0.756144642829895,
                    0.03295348212122917,
                    0.03295348212122917,
                    0.943612277507782
                ],
                "metallicFactor" : 0
            }
        },
        {
            "alphaMode" : "BLEND",
            "doubleSided" : true,
            "emissiveFactor" : [
                1,
                0.4763779938220978,
                0.1023619994521141
            ],
            "name" : "Sun_3",
            "pbrMetallicRoughness" : {
                "baseColorFactor" : [
                    0.9514560103416443,
                    0.6866220235824585,
                    0.19478599727153778,
                    0.0587637685239315
                ],
                "metallicFactor" : 0
            }
        },
        {
            "doubleSided" : true,
            "emissiveFactor" : [
                0.9900000095367432,
                0.8122680187225342,
                0.10133899748325348
            ],
            "name" : "Sun_2",
            "pbrMetallicRoughness" : {
                "baseColorFactor" : [
                    0.9514560103416443,
                    0.6866220235824585,
                    0.19478599727153778,
                    1
                ],
                "metallicFactor" : 0,
                "roughnessFactor" : 0
            }
        }
    ],
    "meshes" : [
        {
            "name" : "Sun1__1_Sphere_4_Sphere_41_Sun 1_0",
            "primitives" : [
                {
                    "attributes" : {
                        "POSITION" : 0,
                        "NORMAL" : 1,
                        "TEXCOORD_0" : 2
                    },
                    "indices" : 3,
                    "material" : 0
                }
            ]
        },
        {
            "name" : "Sun1_Sphere10_Sun 3_0",
            "primitives" : [
                {
                    "attributes" : {
                        "POSITION" : 4,
                        "NORMAL" : 5,
                        "TEXCOORD_0" : 6
                    },
                    "indices" : 7,
                    "material" : 1
                }
            ]
        },
        {
            "name" : "Sun1_Sphere_36_Sphere_42_Sphere_43_Sun 2_0",
            "primitives" : [
                {
                    "attributes" : {
                        "POSITION" : 8,
                        "NORMAL" : 9,
                        "TEXCOORD_0" : 10
                    },
                    "indices" : 3,
                    "material" : 2
                }
            ]
        },
        {
            "name" : "Sun1_Sphere_91_Sphere_44_Sphere_49_Sun 1_0",
            "primitives" : [
                {
                    "attributes" : {
                        "POSITION" : 11,
                        "NORMAL" : 12,
                        "TEXCOORD_0" : 13
                    },
                    "indices" : 3,
                    "material" : 0
                }
            ]
        }
    ],
    "accessors" : [
        {
            "bufferView" : 0,
            "componentType" : 5126,
            "count" : 8136,
            "max" : [
                3313.675537109375,
                3393.919921875,
                3197.761962890625
            ],
            "min" : [
                -3318.460205078125,
                -3366.872314453125,
                -3409.291259765625
            ],
            "type" : "VEC3"
        },
        {
            "bufferView" : 1,
            "componentType" : 5126,
            "count" : 8136,
            "type" : "VEC3"
        },
        {
            "bufferView" : 2,
            "componentType" : 5126,
            "count" : 8136,
            "type" : "VEC2"
        },
        {
            "bufferView" : 3,
            "componentType" : 5123,
            "count" : 8136,
            "type" : "SCALAR"
        },
        {
            "bufferView" : 4,
            "componentType" : 5126,
            "count" : 5988,
            "max" : [
                3342.285400390625,
                3276.641357421875,
                3221.536865234375
            ],
            "min" : [
                -3225.358642578125,
                -3233.592529296875,
                -3333.7470703125
            ],
            "type" : "VEC3"
        },
        {
            "bufferView" : 5,
            "componentType" : 5126,
            "count" : 5988,
            "type" : "VEC3"
        },
        {
            "bufferView" : 6,
            "componentType" : 5126,
            "count" : 5988,
            "type" : "VEC2"
        },
        {
            "bufferView" : 7,
            "componentType" : 5123,
            "count" : 5988,
            "type" : "SCALAR"
        },
        {
            "bufferView" : 8,
            "componentType" : 5126,
            "count" : 8136,
            "max" : [
                3341.331298828125,
                3283.945556640625,
                3204.367919921875
            ],
            "min" : [
                -3241.49560546875,
                -3403.68701171875,
                -3310.822998046875
            ],
            "type" : "VEC3"
        },
        {
            "bufferView" : 9,
            "componentType" : 5126,
            "count" : 8136,
            "type" : "VEC3"
        },
        {
            "bufferView" : 10,
            "componentType" : 5126,
            "count" : 8136,
            "type" : "VEC2"
        },
        {
            "bufferView" : 11,
            "componentType" : 5126,
            "count" : 8136,
            "max" : [
                3402.06494140625,
                3337.61083984375,
                3230.647705078125
            ],
            "min" : [
                -3242.40478515625,
                -3337.85302734375,
                -3440.0615234375
            ],
            "type" : "VEC3"
        },
        {
            "bufferView" : 12,
            "componentType" : 5126,
            "count" : 8136,
            "type" : "VEC3"
        },
        {
            "bufferView" : 13,
            "componentType" : 5126,
            "count" : 8136,
            "type" : "VEC2"
        }
    ],
    "bufferViews" : [
        {
            "buffer" : 0,
            "byteLength" : 97632,
            "byteOffset" : 0
        },
        {
            "buffer" : 0,
            "byteLength" : 97632,
            "byteOffset" : 97632
        },
        {
            "buffer" : 0,
            "byteLength" : 65088,
            "byteOffset" : 195264
        },
        {
            "buffer" : 0,
            "byteLength" : 16272,
            "byteOffset" : 260352
        },
        {
            "buffer" : 0,
            "byteLength" : 71856,
            "byteOffset" : 276624
        },
        {
            "buffer" : 0,
            "byteLength" : 71856,
            "byteOffset" : 348480
        },
        {
            "buffer" : 0,
            "byteLength" : 47904,
            "byteOffset" : 420336
        },
        {
            "buffer" : 0,
            "byteLength" : 11976,
            "byteOffset" : 468240
        },
        {
            "buffer" : 0,
            "byteLength" : 97632,
            "byteOffset" : 480216
        },
        {
            "buffer" : 0,
            "byteLength" : 97632,
            "byteOffset" : 577848
        },
        {
            "buffer" : 0,
            "byteLength" : 65088,
            "byteOffset" : 675480
        },
        {
            "buffer" : 0,
            "byteLength" : 97632,
            "byteOffset" : 740568
        },
        {
            "buffer" : 0,
            "byteLength" : 97632,
            "byteOffset" : 838200
        },
        {
            "buffer" : 0,
            "byteLength" : 65088,
            "byteOffset" : 935832
        }
    ],
    "buffers" : [
        {
            "byteLength" : 1000920,
            "uri" : "data:application/octet-stream;base64,"
        }
    ]
}
