{
    "asset" : {
        "generator" : "Khronos glTF Blender I/O v1.5.17",
        "version" : "2.0"
    },
    "scene" : 0,
    "scenes" : [
        {
            "name" : "Scene",
            "nodes" : [
                6
            ]
        }
    ],
    "nodes" : [
        {
            "mesh" : 0,
            "name" : "Mesh_10"
        },
        {
            "mesh" : 1,
            "name" : "Mesh_11"
        },
        {
            "children" : [
                0,
                1
            ],
            "name" : "Uranus_7",
            "rotation" : [
                -0.4226183593273163,
                0,
                0,
                0.9063078761100769
            ],
            "translation" : [
                9.574330761097372e-05,
                -7.011080015217885e-05,
                -0.0002136541879735887
            ]
        },
        {
            "children" : [
                2
            ],
            "name" : "GLTF_SceneRootNode",
            "rotation" : [
                0.7071068286895752,
                0,
                0,
                0.7071068286895752
            ]
        },
        {
            "children" : [
                3
            ],
            "name" : "root"
        },
        {
            "children" : [
                4
            ],
            "name" : "RootNode (model correction matrix)"
        },
        {
            "children" : [
                5
            ],
            "name" : "RootNode (gltf orientation matrix)",
            "rotation" : [
                -0.7071068286895752,
                0,
                0,
                0.7071068286895752
            ]
        }
    ],
    "materials" : [
        {
            "doubleSided" : true,
            "emissiveFactor" : [
                1,
                1,
                1
            ],
            "emissiveTexture" : {
                "index" : 0
            },
            "name" : "Uranus",
            "pbrMetallicRoughness" : {
                "baseColorTexture" : {
                    "index" : 1
                },
                "metallicFactor" : 0,
                "metallicRoughnessTexture" : {
                    "index" : 2
                }
            }
        },
        {
            "alphaMode" : "BLEND",
            "doubleSided" : true,
            "name" : "Uranus_Ring",
            "pbrMetallicRoughness" : {
                "baseColorTexture" : {
                    "index" : 3
                },
                "metallicFactor" : 0,
                "roughnessFactor" : 0.5
            }
        }
    ],
    "meshes" : [
        {
            "name" : "Mesh_10",
            "primitives" : [
                {
                    "attributes" : {
                        "POSITION" : 0,
                        "NORMAL" : 1,
                        "TEXCOORD_0" : 2
                    },
                    "indices" : 3,
                    "material" : 0
                }
            ]
        },
        {
            "name" : "Mesh_11",
            "primitives" : [
                {
                    "attributes" : {
                        "POSITION" : 4,
                        "NORMAL" : 5,
                        "TEXCOORD_0" : 6
                    },
                    "indices" : 7,
                    "material" : 1
                }
            ]
        }
    ],
    "textures" : [
        {
            "sampler" : 0,
            "source" : 0
        },
        {
            "sampler" : 0,
            "source" : 1
        },
        {
            "sampler" : 0,
            "source" : 2
        },
        {
            "sampler" : 0,
            "source" : 3
        }
    ],
    "images" : [
        {
            "bufferView" : 4,
            "mimeType" : "image/jpeg",
            "name" : "Uranus_emissive"
        },
        {
            "bufferView" : 5,
            "mimeType" : "image/jpeg",
            "name" : "Uranus_baseColor"
        },
        {
            "bufferView" : 6,
            "mimeType" : "image/png",
            "name" : "Uranus_metallicRoughness"
        },
        {
            "bufferView" : 11,
            "mimeType" : "image/png",
            "name" : "Uranus_Ring_baseColor"
        }
    ],
    "accessors" : [
        {
            "bufferView" : 0,
            "componentType" : 5126,
            "count" : 2617,
            "max" : [
                0.015983998775482178,
                0.015983998775482178,
                0.015984004363417625
            ],
            "min" : [
                -0.01598399691283703,
                -0.015983998775482178,
                -0.015983998775482178
            ],
            "type" : "VEC3"
        },
        {
            "bufferView" : 1,
            "componentType" : 5126,
            "count" : 2617,
            "type" : "VEC3"
        },
        {
            "bufferView" : 2,
            "componentType" : 5126,
            "count" : 2617,
            "type" : "VEC2"
        },
        {
            "bufferView" : 3,
            "componentType" : 5123,
            "count" : 15360,
            "type" : "SCALAR"
        },
        {
            "bufferView" : 7,
            "componentType" : 5126,
            "count" : 480,
            "max" : [
                0.02555965632200241,
                0.025559628382325172,
                6.34427266277271e-08
            ],
            "min" : [
                -0.02555965632200241,
                -0.025559687986969948,
                -7.571261306793531e-08
            ],
            "type" : "VEC3"
        },
        {
            "bufferView" : 8,
            "componentType" : 5126,
            "count" : 480,
            "type" : "VEC3"
        },
        {
            "bufferView" : 9,
            "componentType" : 5126,
            "count" : 480,
            "type" : "VEC2"
        },
        {
            "bufferView" : 10,
            "componentType" : 5123,
            "count" : 480,
            "type" : "SCALAR"
        }
    ],
    "bufferViews" : [
        {
            "buffer" : 0,
            "byteLength" : 31404,
            "byteOffset" : 0
        },
        {
            "buffer" : 0,
            "byteLength" : 31404,
            "byteOffset" : 31404
        },
        {
            "buffer" : 0,
            "byteLength" : 20936,
            "byteOffset" : 62808
        },
        {
            "buffer" : 0,
            "byteLength" : 30720,
            "byteOffset" : 83744
        },
        {
            "buffer" : 0,
            "byteLength" : 59991,
            "byteOffset" : 114464
        },
        {
            "buffer" : 0,
            "byteLength" : 196473,
            "byteOffset" : 174456
        },
        {
            "buffer" : 0,
            "byteLength" : 305738,
            "byteOffset" : 370932
        },
        {
            "buffer" : 0,
            "byteLength" : 5760,
            "byteOffset" : 676672
        },
        {
            "buffer" : 0,
            "byteLength" : 5760,
            "byteOffset" : 682432
        },
        {
            "buffer" : 0,
            "byteLength" : 3840,
            "byteOffset" : 688192
        },
        {
            "buffer" : 0,
            "byteLength" : 960,
            "byteOffset" : 692032
        },
        {
            "buffer" : 0,
            "byteLength" : 849,
            "byteOffset" : 692992
        }
    ],
    "samplers" : [
        {
            "magFilter" : 9729,
            "minFilter" : 9987
        }
    ],
    "buffers" : [
        {
            "byteLength" : 693844,
            "uri" : "data:application/octet-stream;base64,"
        }
    ]
}
