{
    "asset" : {
        "generator" : "Khronos glTF Blender I/O v1.5.17",
        "version" : "2.0"
    },
    "scene" : 0,
    "scenes" : [
        {
            "name" : "Scene",
            "nodes" : [
                11
            ]
        }
    ],
    "nodes" : [
        {
            "mesh" : 0,
            "name" : "Uranus_Null_Sphere_212_Water_0",
            "translation" : [
                -32.047607421875,
                519.7271728515625,
                -10094.6005859375
            ]
        },
        {
            "children" : [
                0
            ],
            "name" : "Uranus_Null_Sphere_212",
            "rotation" : [
                0.019919591024518013,
                -0.16663707792758942,
                0.2284286916255951,
                0.9589868783950806
            ],
            "translation" : [
                -18.03271484375,
                -8.7606201171875,
                -4.2568359375
            ]
        },
        {
            "children" : [
                1
            ],
            "name" : "Uranus_1",
            "rotation" : [
                -0.019919591024518013,
                0.16663707792758942,
                -0.2284287065267563,
                0.9589868783950806
            ],
            "translation" : [
                -280.5019226074219,
                -511.8865661621094,
                10013.609375
            ]
        },
        {
            "mesh" : 1,
            "name" : "Uranus_Null_Sphere_212_2_Ice 2_0",
            "translation" : [
                -32.0477294921875,
                519.7268676757812,
                -10094.6005859375
            ]
        },
        {
            "children" : [
                3
            ],
            "name" : "Uranus_Null_Sphere_212_2",
            "translation" : [
                -300.8314514160156,
                -511.5441589355469,
                10016.1884765625
            ]
        },
        {
            "children" : [
                2,
                4
            ],
            "name" : "Uranus"
        },
        {
            "children" : [
                5
            ],
            "name" : "uranus",
            "rotation" : [
                -0.018541282042860985,
                -0.7056630849838257,
                -0.018478458747267723,
                0.7080638408660889
            ],
            "scale" : [
                0.3937007784843445,
                0.3937007188796997,
                0.3937007486820221
            ],
            "translation" : [
                -26.501049041748047,
                3.9471678733825684,
                117.9029312133789
            ]
        },
        {
            "children" : [
                6
            ],
            "name" : "RootNode"
        },
        {
            "children" : [
                7
            ],
            "name" : "Node_3"
        },
        {
            "children" : [
                8
            ],
            "name" : "f5ab74d6bf0e43a2b1a25124d3e94a1b.fbx",
            "rotation" : [
                0.7071068286895752,
                0,
                0,
                0.7071068286895752
            ]
        },
        {
            "children" : [
                9
            ],
            "name" : "RootNode (model correction matrix)",
            "scale" : [
                0.00021848359028808773,
                0.00021848359028808773,
                0.00021848359028808773
            ]
        },
        {
            "children" : [
                10
            ],
            "name" : "RootNode (gltf orientation matrix)",
            "rotation" : [
                -0.7071068286895752,
                0,
                0,
                0.7071068286895752
            ]
        }
    ],
    "materials" : [
        {
            "doubleSided" : true,
            "name" : "Water",
            "pbrMetallicRoughness" : {
                "baseColorFactor" : [
                    0.21259799599647522,
                    0.4881890118122101,
                    1,
                    1
                ],
                "metallicFactor" : 0,
                "roughnessFactor" : 0.8868629336357117
            }
        },
        {
            "doubleSided" : true,
            "name" : "Ice_2",
            "pbrMetallicRoughness" : {
                "baseColorFactor" : [
                    0.13576899468898773,
                    0.592199981212616,
                    0.7184470295906067,
                    1
                ],
                "metallicFactor" : 0
            }
        }
    ],
    "meshes" : [
        {
            "name" : "Uranus_Null_Sphere_212_Water_0",
            "primitives" : [
                {
                    "attributes" : {
                        "POSITION" : 0,
                        "NORMAL" : 1,
                        "TEXCOORD_0" : 2
                    },
                    "indices" : 3,
                    "material" : 0
                }
            ]
        },
        {
            "name" : "Uranus_Null_Sphere_212_2_Ice 2_0",
            "primitives" : [
                {
                    "attributes" : {
                        "POSITION" : 4,
                        "NORMAL" : 5,
                        "TEXCOORD_0" : 6
                    },
                    "indices" : 3,
                    "material" : 1
                }
            ]
        }
    ],
    "accessors" : [
        {
            "bufferView" : 0,
            "componentType" : 5126,
            "count" : 5400,
            "max" : [
                222.29550170898438,
                205.50701904296875,
                197.2129669189453
            ],
            "min" : [
                -174.35165405273438,
                -195.13436889648438,
                -201.82455444335938
            ],
            "type" : "VEC3"
        },
        {
            "bufferView" : 1,
            "componentType" : 5126,
            "count" : 5400,
            "type" : "VEC3"
        },
        {
            "bufferView" : 2,
            "componentType" : 5126,
            "count" : 5400,
            "type" : "VEC2"
        },
        {
            "bufferView" : 3,
            "componentType" : 5123,
            "count" : 5400,
            "type" : "SCALAR"
        },
        {
            "bufferView" : 4,
            "componentType" : 5126,
            "count" : 5400,
            "max" : [
                228.5864715576172,
                213.05738830566406,
                205.42684936523438
            ],
            "min" : [
                -182.16810607910156,
                -201.06297302246094,
                -205.67333984375
            ],
            "type" : "VEC3"
        },
        {
            "bufferView" : 5,
            "componentType" : 5126,
            "count" : 5400,
            "type" : "VEC3"
        },
        {
            "bufferView" : 6,
            "componentType" : 5126,
            "count" : 5400,
            "type" : "VEC2"
        }
    ],
    "bufferViews" : [
        {
            "buffer" : 0,
            "byteLength" : 64800,
            "byteOffset" : 0
        },
        {
            "buffer" : 0,
            "byteLength" : 64800,
            "byteOffset" : 64800
        },
        {
            "buffer" : 0,
            "byteLength" : 43200,
            "byteOffset" : 129600
        },
        {
            "buffer" : 0,
            "byteLength" : 10800,
            "byteOffset" : 172800
        },
        {
            "buffer" : 0,
            "byteLength" : 64800,
            "byteOffset" : 183600
        },
        {
            "buffer" : 0,
            "byteLength" : 64800,
            "byteOffset" : 248400
        },
        {
            "buffer" : 0,
            "byteLength" : 43200,
            "byteOffset" : 313200
        }
    ],
    "buffers" : [
        {
            "byteLength" : 356400,
            "uri" : "data:application/octet-stream;base64,"
        }
    ]
}
