{
    "asset" : {
        "generator" : "Khronos glTF Blender I/O v1.5.17",
        "version" : "2.0"
    },
    "scene" : 0,
    "scenes" : [
        {
            "name" : "Scene",
            "nodes" : [
                6
            ]
        }
    ],
    "nodes" : [
        {
            "mesh" : 0,
            "name" : "Mesh_1"
        },
        {
            "mesh" : 1,
            "name" : "Mesh_2"
        },
        {
            "children" : [
                0,
                1
            ],
            "name" : "Venus_1",
            "translation" : [
                -0.00018634923617355525,
                -3.6699362681247294e-05,
                5.88861876167357e-05
            ]
        },
        {
            "children" : [
                2
            ],
            "name" : "GLTF_SceneRootNode",
            "rotation" : [
                0.7071068286895752,
                0,
                0,
                0.7071068286895752
            ]
        },
        {
            "children" : [
                3
            ],
            "name" : "root"
        },
        {
            "children" : [
                4
            ],
            "name" : "RootNode (model correction matrix)"
        },
        {
            "children" : [
                5
            ],
            "name" : "RootNode (gltf orientation matrix)",
            "rotation" : [
                -0.7071068286895752,
                0,
                0,
                0.7071068286895752
            ]
        }
    ],
    "materials" : [
        {
            "doubleSided" : true,
            "name" : "Venus",
            "pbrMetallicRoughness" : {
                "baseColorTexture" : {
                    "index" : 0
                },
                "metallicFactor" : 0,
                "metallicRoughnessTexture" : {
                    "index" : 1
                }
            }
        },
        {
            "alphaMode" : "BLEND",
            "doubleSided" : true,
            "name" : "Venus_Clouds",
            "pbrMetallicRoughness" : {
                "baseColorTexture" : {
                    "index" : 2
                },
                "metallicFactor" : 0,
                "roughnessFactor" : 0.5
            }
        }
    ],
    "meshes" : [
        {
            "name" : "Mesh_1",
            "primitives" : [
                {
                    "attributes" : {
                        "POSITION" : 0,
                        "NORMAL" : 1,
                        "TEXCOORD_0" : 2
                    },
                    "indices" : 3,
                    "material" : 0
                }
            ]
        },
        {
            "name" : "Mesh_2",
            "primitives" : [
                {
                    "attributes" : {
                        "POSITION" : 4,
                        "NORMAL" : 5,
                        "TEXCOORD_0" : 6
                    },
                    "indices" : 3,
                    "material" : 1
                }
            ]
        }
    ],
    "textures" : [
        {
            "sampler" : 0,
            "source" : 0
        },
        {
            "sampler" : 0,
            "source" : 1
        },
        {
            "sampler" : 0,
            "source" : 2
        }
    ],
    "images" : [
        {
            "bufferView" : 4,
            "mimeType" : "image/jpeg",
            "name" : "Venus_baseColor"
        },
        {
            "bufferView" : 5,
            "mimeType" : "image/png",
            "name" : "Venus_metallicRoughness"
        },
        {
            "bufferView" : 9,
            "mimeType" : "image/png",
            "name" : "Venus_Clouds_baseColor"
        }
    ],
    "accessors" : [
        {
            "bufferView" : 0,
            "componentType" : 5126,
            "count" : 2617,
            "max" : [
                0.005804258398711681,
                0.005804257933050394,
                0.005804258398711681
            ],
            "min" : [
                -0.005804258398711681,
                -0.005804257933050394,
                -0.005804258398711681
            ],
            "type" : "VEC3"
        },
        {
            "bufferView" : 1,
            "componentType" : 5126,
            "count" : 2617,
            "type" : "VEC3"
        },
        {
            "bufferView" : 2,
            "componentType" : 5126,
            "count" : 2617,
            "type" : "VEC2"
        },
        {
            "bufferView" : 3,
            "componentType" : 5123,
            "count" : 15360,
            "type" : "SCALAR"
        },
        {
            "bufferView" : 6,
            "componentType" : 5126,
            "count" : 2617,
            "max" : [
                0.006049999967217445,
                0.006049999967217445,
                0.00605000089854002
            ],
            "min" : [
                -0.00605000089854002,
                -0.006049999967217445,
                -0.006049999967217445
            ],
            "type" : "VEC3"
        },
        {
            "bufferView" : 7,
            "componentType" : 5126,
            "count" : 2617,
            "type" : "VEC3"
        },
        {
            "bufferView" : 8,
            "componentType" : 5126,
            "count" : 2617,
            "type" : "VEC2"
        }
    ],
    "bufferViews" : [
        {
            "buffer" : 0,
            "byteLength" : 31404,
            "byteOffset" : 0
        },
        {
            "buffer" : 0,
            "byteLength" : 31404,
            "byteOffset" : 31404
        },
        {
            "buffer" : 0,
            "byteLength" : 20936,
            "byteOffset" : 62808
        },
        {
            "buffer" : 0,
            "byteLength" : 30720,
            "byteOffset" : 83744
        },
        {
            "buffer" : 0,
            "byteLength" : 492686,
            "byteOffset" : 114464
        },
        {
            "buffer" : 0,
            "byteLength" : 478157,
            "byteOffset" : 607152
        },
        {
            "buffer" : 0,
            "byteLength" : 31404,
            "byteOffset" : 1085312
        },
        {
            "buffer" : 0,
            "byteLength" : 31404,
            "byteOffset" : 1116716
        },
        {
            "buffer" : 0,
            "byteLength" : 20936,
            "byteOffset" : 1148120
        },
        {
            "buffer" : 0,
            "byteLength" : 679605,
            "byteOffset" : 1169056
        }
    ],
    "samplers" : [
        {
            "magFilter" : 9729,
            "minFilter" : 9987
        }
    ],
    "buffers" : [
        {
            "byteLength" : 1848664,
            "uri" : "data:application/octet-stream;base64,"
        }
    ]
}
