{
    "asset" : {
        "generator" : "Khronos glTF Blender I/O v1.5.17",
        "version" : "2.0"
    },
    "scene" : 0,
    "scenes" : [
        {
            "name" : "Scene",
            "nodes" : [
                14
            ]
        }
    ],
    "nodes" : [
        {
            "mesh" : 0,
            "name" : "Venus_Sphere_Ground_0"
        },
        {
            "children" : [
                0
            ],
            "name" : "Venus_Sphere",
            "translation" : [
                19.098556518554688,
                36.911319732666016,
                -368.1000061035156
            ]
        },
        {
            "mesh" : 1,
            "name" : "Venus_Sphere_12_Mat.7_0"
        },
        {
            "children" : [
                2
            ],
            "name" : "Venus_Sphere_12",
            "translation" : [
                16.790206909179688,
                36.911319732666016,
                -368.0995178222656
            ]
        },
        {
            "mesh" : 2,
            "name" : "Venus_Sphere_213_Ground_0"
        },
        {
            "children" : [
                4
            ],
            "name" : "Venus_Sphere_213",
            "translation" : [
                19.098556518554688,
                36.911319732666016,
                -368.1000061035156
            ]
        },
        {
            "mesh" : 3,
            "name" : "Venus_Sphere_34_Ground_0"
        },
        {
            "children" : [
                6
            ],
            "name" : "Venus_Sphere_34",
            "translation" : [
                19.098556518554688,
                36.911319732666016,
                -368.1000061035156
            ]
        },
        {
            "children" : [
                1,
                3,
                5,
                7
            ],
            "name" : "Venus"
        },
        {
            "children" : [
                8
            ],
            "name" : "venus",
            "rotation" : [
                0,
                -0.09190399199724197,
                0,
                0.9957678914070129
            ],
            "scale" : [
                0.39370080828666687,
                0.3937007784843445,
                0.39370080828666687
            ],
            "translation" : [
                -25.930259704589844,
                -10.900696754455566,
                137.79225158691406
            ]
        },
        {
            "children" : [
                9
            ],
            "name" : "RootNode"
        },
        {
            "children" : [
                10
            ],
            "name" : "Node_3"
        },
        {
            "children" : [
                11
            ],
            "name" : "f5ab74d6bf0e43a2b1a25124d3e94a1b.fbx",
            "rotation" : [
                0.7071068286895752,
                0,
                0,
                0.7071068286895752
            ]
        },
        {
            "children" : [
                12
            ],
            "name" : "RootNode (model correction matrix)",
            "scale" : [
                0.00021848359028808773,
                0.00021848359028808773,
                0.00021848359028808773
            ]
        },
        {
            "children" : [
                13
            ],
            "name" : "RootNode (gltf orientation matrix)",
            "rotation" : [
                -0.7071068286895752,
                0,
                0,
                0.7071068286895752
            ]
        }
    ],
    "materials" : [
        {
            "doubleSided" : true,
            "name" : "Ground_0",
            "pbrMetallicRoughness" : {
                "baseColorFactor" : [
                    0.7087380290031433,
                    0.3167929947376251,
                    0.22880500555038452,
                    1
                ],
                "metallicFactor" : 0
            }
        },
        {
            "doubleSided" : true,
            "name" : "Mat.7",
            "pbrMetallicRoughness" : {
                "baseColorFactor" : [
                    0.9223300218582153,
                    0.55799800157547,
                    0.297760009765625,
                    1
                ],
                "metallicFactor" : 0
            }
        },
        {
            "doubleSided" : true,
            "name" : "Ground_1",
            "pbrMetallicRoughness" : {
                "baseColorFactor" : [
                    0.8932039737701416,
                    0.5151749849319458,
                    0.3657209873199463,
                    1
                ],
                "metallicFactor" : 0,
                "roughnessFactor" : 0.9524317383766174
            }
        }
    ],
    "meshes" : [
        {
            "name" : "Venus_Sphere_Ground_0",
            "primitives" : [
                {
                    "attributes" : {
                        "POSITION" : 0,
                        "NORMAL" : 1,
                        "TEXCOORD_0" : 2
                    },
                    "indices" : 3,
                    "material" : 0
                }
            ]
        },
        {
            "name" : "Venus_Sphere_12_Mat.7_0",
            "primitives" : [
                {
                    "attributes" : {
                        "POSITION" : 4,
                        "NORMAL" : 5,
                        "TEXCOORD_0" : 6
                    },
                    "indices" : 7,
                    "material" : 1
                }
            ]
        },
        {
            "name" : "Venus_Sphere_213_Ground_0",
            "primitives" : [
                {
                    "attributes" : {
                        "POSITION" : 8,
                        "NORMAL" : 9,
                        "TEXCOORD_0" : 10
                    },
                    "indices" : 11,
                    "material" : 0
                }
            ]
        },
        {
            "name" : "Venus_Sphere_34_Ground_0",
            "primitives" : [
                {
                    "attributes" : {
                        "POSITION" : 12,
                        "NORMAL" : 13,
                        "TEXCOORD_0" : 14
                    },
                    "indices" : 15,
                    "material" : 2
                }
            ]
        }
    ],
    "accessors" : [
        {
            "bufferView" : 0,
            "componentType" : 5126,
            "count" : 5988,
            "max" : [
                97.69517517089844,
                95.85623931884766,
                92.3758773803711
            ],
            "min" : [
                -93.93843078613281,
                -96.1504898071289,
                -100.43891143798828
            ],
            "type" : "VEC3"
        },
        {
            "bufferView" : 1,
            "componentType" : 5126,
            "count" : 5988,
            "type" : "VEC3"
        },
        {
            "bufferView" : 2,
            "componentType" : 5126,
            "count" : 5988,
            "type" : "VEC2"
        },
        {
            "bufferView" : 3,
            "componentType" : 5123,
            "count" : 5988,
            "type" : "SCALAR"
        },
        {
            "bufferView" : 4,
            "componentType" : 5126,
            "count" : 3624,
            "max" : [
                96.94938659667969,
                93.33190155029297,
                91.46015930175781
            ],
            "min" : [
                -92.55313873291016,
                -95.76505279541016,
                -99.2603759765625
            ],
            "type" : "VEC3"
        },
        {
            "bufferView" : 5,
            "componentType" : 5126,
            "count" : 3624,
            "type" : "VEC3"
        },
        {
            "bufferView" : 6,
            "componentType" : 5126,
            "count" : 3624,
            "type" : "VEC2"
        },
        {
            "bufferView" : 7,
            "componentType" : 5123,
            "count" : 3624,
            "type" : "SCALAR"
        },
        {
            "bufferView" : 8,
            "componentType" : 5126,
            "count" : 1296,
            "max" : [
                95.98579406738281,
                94.40343475341797,
                90.2373275756836
            ],
            "min" : [
                -93.9548568725586,
                -95.3224105834961,
                -99.57267761230469
            ],
            "type" : "VEC3"
        },
        {
            "bufferView" : 9,
            "componentType" : 5126,
            "count" : 1296,
            "type" : "VEC3"
        },
        {
            "bufferView" : 10,
            "componentType" : 5126,
            "count" : 1296,
            "type" : "VEC2"
        },
        {
            "bufferView" : 11,
            "componentType" : 5123,
            "count" : 1296,
            "type" : "SCALAR"
        },
        {
            "bufferView" : 12,
            "componentType" : 5126,
            "count" : 2904,
            "max" : [
                97.70201110839844,
                94.26238250732422,
                89.73603057861328
            ],
            "min" : [
                -91.02674865722656,
                -95.19580841064453,
                -99.56967163085938
            ],
            "type" : "VEC3"
        },
        {
            "bufferView" : 13,
            "componentType" : 5126,
            "count" : 2904,
            "type" : "VEC3"
        },
        {
            "bufferView" : 14,
            "componentType" : 5126,
            "count" : 2904,
            "type" : "VEC2"
        },
        {
            "bufferView" : 15,
            "componentType" : 5123,
            "count" : 2904,
            "type" : "SCALAR"
        }
    ],
    "bufferViews" : [
        {
            "buffer" : 0,
            "byteLength" : 71856,
            "byteOffset" : 0
        },
        {
            "buffer" : 0,
            "byteLength" : 71856,
            "byteOffset" : 71856
        },
        {
            "buffer" : 0,
            "byteLength" : 47904,
            "byteOffset" : 143712
        },
        {
            "buffer" : 0,
            "byteLength" : 11976,
            "byteOffset" : 191616
        },
        {
            "buffer" : 0,
            "byteLength" : 43488,
            "byteOffset" : 203592
        },
        {
            "buffer" : 0,
            "byteLength" : 43488,
            "byteOffset" : 247080
        },
        {
            "buffer" : 0,
            "byteLength" : 28992,
            "byteOffset" : 290568
        },
        {
            "buffer" : 0,
            "byteLength" : 7248,
            "byteOffset" : 319560
        },
        {
            "buffer" : 0,
            "byteLength" : 15552,
            "byteOffset" : 326808
        },
        {
            "buffer" : 0,
            "byteLength" : 15552,
            "byteOffset" : 342360
        },
        {
            "buffer" : 0,
            "byteLength" : 10368,
            "byteOffset" : 357912
        },
        {
            "buffer" : 0,
            "byteLength" : 2592,
            "byteOffset" : 368280
        },
        {
            "buffer" : 0,
            "byteLength" : 34848,
            "byteOffset" : 370872
        },
        {
            "buffer" : 0,
            "byteLength" : 34848,
            "byteOffset" : 405720
        },
        {
            "buffer" : 0,
            "byteLength" : 23232,
            "byteOffset" : 440568
        },
        {
            "buffer" : 0,
            "byteLength" : 5808,
            "byteOffset" : 463800
        }
    ],
    "buffers" : [
        {
            "byteLength" : 469608,
            "uri" : "data:application/octet-stream;base64,"
        }
    ]
}
