{
  "accessors": [
    {
      "bufferView": 1,
      "componentType": 5126,
      "count": 216,
      "max": [
        1.0620497465133667,
        0.94012433290481567,
        1.1859509944915771
      ],
      "min": [
        -1.0986820459365845,
        -1.1466778516769409,
        -1.0063687562942505
      ],
      "type": "VEC3"
    },
    {
      "bufferView": 1,
      "byteOffset": 2592,
      "componentType": 5126,
      "count": 216,
      "max": [
        0.98445898294448853,
        0.99421089887619019,
        0.98061686754226685
      ],
      "min": [
        -0.91804265975952148,
        -0.97239565849304199,
        -0.97333157062530518
      ],
      "type": "VEC3"
    },
    {
      "bufferView": 2,
      "componentType": 5126,
      "count": 216,
      "max": [
        0.91376882791519165,
        0.8675159215927124,
        0.97787129878997803,
        1
      ],
      "min": [
        -0.93908172845840454,
        -0.89697635173797607,
        -0.9876142144203186,
        -1
      ],
      "type": "VEC4"
    },
    {
      "bufferView": 0,
      "componentType": 5125,
      "count": 222,
      "max": [
        215
      ],
      "min": [
        0
      ],
      "type": "SCALAR"
    }
  ],
  "asset": {
    "extras": {
      "author": "mankindforward (https://sketchfab.com/mankindforward)",
      "license": "CC-BY-4.0 (http://creativecommons.org/licenses/by/4.0/)",
      "source": "https://sketchfab.com/models/97ce98bb21344b4a94b69cae0ba0084e",
      "title": "Low Poly Storm Cloud"
    },
    "generator": "Sketchfab-3.18.5",
    "version": "2.0"
  },
  "bufferViews": [
    {
      "buffer": 0,
      "byteLength": 888,
      "byteOffset": 0,
      "name": "floatBufferViews",
      "target": 34963
    },
    {
      "buffer": 0,
      "byteLength": 5184,
      "byteOffset": 888,
      "byteStride": 12,
      "name": "floatBufferViews",
      "target": 34962
    },
    {
      "buffer": 0,
      "byteLength": 3456,
      "byteOffset": 6072,
      "byteStride": 16,
      "name": "floatBufferViews",
      "target": 34962
    }
  ],
  "buffers": [
    {
      "byteLength": 9528,
      "uri": "scene.bin"
    }
  ],
  "materials": [
    {
      "doubleSided": true,
      "emissiveFactor": [
        0,
        0,
        0
      ],
      "name": "cloud01-1480514133826-1000-1000-1000",
      "pbrMetallicRoughness": {
        "baseColorFactor": [
          1,
          1,
          1,
          1
        ],
        "metallicFactor": 0,
        "roughnessFactor": 0.59999999999999998
      }
    }
  ],
  "meshes": [
    {
      "name": "cloud01_cloud01-1480514133826-1000-1000-1000_0",
      "primitives": [
        {
          "attributes": {
            "NORMAL": 1,
            "POSITION": 0,
            "TANGENT": 2
          },
          "indices": 3,
          "material": 0,
          "mode": 4
        }
      ]
    }
  ],
  "nodes": [
    {
      "children": [
        1
      ],
      "name": "RootNode (gltf orientation matrix)",
      "rotation": [
        -0.70710678118654746,
        -0,
        -0,
        0.70710678118654757
      ]
    },
    {
      "children": [
        2
      ],
      "name": "RootNode (model correction matrix)"
    },
    {
      "children": [
        3
      ],
      "matrix": [
        1,
        0,
        0,
        0,
        0,
        0,
        1,
        0,
        0,
        -1,
        0,
        0,
        0,
        0,
        0,
        1
      ],
      "name": "cloud01-1480514133844.fbx"
    },
    {
      "children": [
        4
      ],
      "name": "RootNode"
    },
    {
      "children": [
        5
      ],
      "matrix": [
        367.13034057617188,
        0,
        0,
        0,
        0,
        -2.9737841803289344e-05,
        -182.52957153320071,
        0,
        0,
        114.52336120605318,
        -1.8658223813926539e-05,
        0,
        0,
        0,
        0,
        1
      ],
      "name": "cloud01"
    },
    {
      "mesh": 0,
      "name": "cloud01_cloud01-1480514133826-1000-1000-1000_0"
    }
  ],
  "scene": 0,
  "scenes": [
    {
      "name": "OSG_Scene",
      "nodes": [
        0
      ]
    }
  ]
}

